<?xml version="1.0" encoding="UTF-8"?>
<svg xmlns="http://www.w3.org/2000/svg" xmlns:xlink="http://www.w3.org/1999/xlink" viewBox="0 0 569.18 548.1">
  <defs>
    <style>
      .cls-1 {
        mix-blend-mode: soft-light;
        opacity: .59;
      }

      .cls-1, .cls-2 {
        fill: #fff;
      }

      .cls-3 {
        fill: url(#Degradado_sin_nombre_27);
      }

      .cls-4 {
        isolation: isolate;
      }

      .cls-5 {
        fill: url(#Degradado_sin_nombre_27-5);
      }

      .cls-6 {
        fill: url(#Degradado_sin_nombre_27-8);
      }

      .cls-7 {
        fill: url(#Degradado_sin_nombre_27-6);
      }

      .cls-8 {
        fill: url(#Degradado_sin_nombre_27-4);
      }

      .cls-9 {
        fill: url(#Degradado_sin_nombre_27-7);
      }

      .cls-10 {
        fill: url(#Degradado_sin_nombre_27-2);
      }

      .cls-11 {
        fill: url(#Degradado_sin_nombre_27-3);
      }

      .cls-2 {
        opacity: .64;
      }
    </style>
    <linearGradient id="Degradado_sin_nombre_27" data-name="Degradado sin nombre 27" x1="55.18" y1="282.89" x2="514" y2="282.89" gradientUnits="userSpaceOnUse">
      <stop offset="0" stop-color="#05f38c"/>
      <stop offset=".22" stop-color="#05e395"/>
      <stop offset=".4" stop-color="#05dd99"/>
      <stop offset="1" stop-color="#05f7f0"/>
    </linearGradient>
    <linearGradient id="Degradado_sin_nombre_27-2" data-name="Degradado sin nombre 27" x1="0" y1="274.05" x2="569.18" y2="274.05" xlink:href="#Degradado_sin_nombre_27"/>
    <linearGradient id="Degradado_sin_nombre_27-3" data-name="Degradado sin nombre 27" x1="319.18" y1="360.37" x2="402.61" y2="360.37" xlink:href="#Degradado_sin_nombre_27"/>
    <linearGradient id="Degradado_sin_nombre_27-4" data-name="Degradado sin nombre 27" x1="162.96" y1="363.9" x2="246.4" y2="363.9" xlink:href="#Degradado_sin_nombre_27"/>
    <linearGradient id="Degradado_sin_nombre_27-5" data-name="Degradado sin nombre 27" x1="223.83" y1="292.23" x2="341" y2="292.23" xlink:href="#Degradado_sin_nombre_27"/>
    <linearGradient id="Degradado_sin_nombre_27-6" data-name="Degradado sin nombre 27" x1="163.4" y1="346.03" x2="225.46" y2="346.03" xlink:href="#Degradado_sin_nombre_27"/>
    <linearGradient id="Degradado_sin_nombre_27-7" data-name="Degradado sin nombre 27" x1="338.29" y1="344.22" x2="401.27" y2="344.22" xlink:href="#Degradado_sin_nombre_27"/>
    <linearGradient id="Degradado_sin_nombre_27-8" data-name="Degradado sin nombre 27" x1="274.67" y1="292.41" x2="340.77" y2="292.41" xlink:href="#Degradado_sin_nombre_27"/>
  </defs>
  <g class="cls-4">
    <g id="Capa_1" data-name="Capa 1">
      <g>
        <path class="cls-3" d="m272.03,66.56L65.2,216.05c-8.53,6.17-12.1,17.15-8.82,27.15l79.95,243.94c3.26,9.94,12.54,16.67,23,16.67h250.48c10.46,0,19.74-6.72,23-16.67l79.99-244.06c3.26-9.95-.24-20.86-8.68-27.05l-203.59-149.36c-8.47-6.21-19.98-6.26-28.49-.1Z"/>
        <path class="cls-10" d="m556.91,191.11L304.36,5.82c-10.51-7.71-24.79-7.76-35.35-.13L12.44,191.13c-10.59,7.65-15.01,21.27-10.94,33.68l99.17,302.61c4.04,12.33,15.55,20.67,28.53,20.67h310.73c12.98,0,24.49-8.34,28.53-20.67l99.22-302.76c4.04-12.34-.3-25.88-10.77-33.56Zm-24.33,44.02l-86.92,265.22c-3.54,10.8-13.62,18.11-24.99,18.11H148.47c-11.37,0-21.45-7.31-24.99-18.11L36.59,235.26c-3.56-10.87.31-22.8,9.59-29.51L270.94,43.3c9.25-6.69,21.76-6.64,30.97.11l221.24,162.32c9.17,6.73,12.98,18.59,9.44,29.4Z"/>
        <g>
          <path class="cls-2" d="m273.59,96.88L92.4,227.84c-7.48,5.4-10.6,15.02-7.73,23.79l70.03,213.69c2.85,8.71,10.98,14.6,20.15,14.6h219.43c9.17,0,17.29-5.89,20.15-14.6l70.07-213.8c2.86-8.71-.21-18.27-7.61-23.7l-178.34-130.85c-7.42-5.44-17.5-5.48-24.96-.09Z"/>
          <polygon class="cls-1" points="388.73 131.32 93.72 357.17 127.39 459.61 483.53 200.86 388.73 131.32"/>
        </g>
        <g>
          <g>
            <path class="cls-11" d="m319.83,429.25c14.32-17.19,45.92-64.29,39.61-139.26-.27-3.17,4.3-4.21,5.49-1.24,8.76,21.91,22.69,51.84,36.35,60.65,1.01.65,1.56,1.78,1.26,2.91-2.68,10.4-18.53,60.35-79.48,81.25-2.74.94-5.04-2.14-3.22-4.33Z"/>
            <path class="cls-8" d="m245.75,432.78c-14.32-17.19-45.93-64.29-39.61-139.25.27-3.17-4.3-4.21-5.49-1.24-8.76,21.91-22.69,51.84-36.35,60.65-1,.65-1.55,1.78-1.26,2.91,2.69,10.4,18.53,60.36,79.49,81.26,2.74.94,5.04-2.14,3.22-4.33Z"/>
            <path class="cls-5" d="m291.61,158.76c-6.39-8.7-13.35-6.49-12.05-2.98,25.04,61.29,23.37,139.4-.26,155-.48.32-1.01.6-1.58.64-21.8,1.43-29.71-33.4-32.53-62.5-.22-2.27-3.47-2.78-4.45-.7-44.54,94.98,10.35,158.68,33.98,180.28,5.31,4.85,13.74,4.2,18.48-1.17,89.33-101.24,32.32-217.15-1.59-268.56Z"/>
          </g>
          <path class="cls-7" d="m225.46,401.33s-37.7-6.31-62.06-47.57c7.44-6.84,16.36-11.14,37.64-62.13,0,0,5.68-4.1,4.85,5.11-1.21,49.95,4.82,74.47,19.57,104.58Z"/>
          <path class="cls-9" d="m338.29,401.33s36.43-11.94,62.98-51.92c-7.43-6.84-14.72-9.45-36.68-61.25,0,0-6.43-5-4.8,6.74-.08,48.86-6.04,74.92-21.51,106.43Z"/>
          <path class="cls-6" d="m277.72,311.41s-9.52,89.86,5.06,120.31c0,0,4.86,2.16,10.41-4.4,0,0,108.07-102.37-1.59-268.56,0,0-5.16-7.23-10.59-5.83,0,0-2.99.81-.54,5.13,10.76,21.07,34.75,128.93-2.76,153.35Z"/>
        </g>
      </g>
    </g>
  </g>
</svg>