<?xml version="1.0" encoding="UTF-8"?>
<svg id="Capa_1" data-name="Capa 1" xmlns="http://www.w3.org/2000/svg" viewBox="0 0 278.45 278.45">
  <defs>
    <style>
      .cls-1 {
        fill: #fff;
      }
    </style>
  </defs>
  <path id="Icon_ionic-ios-close-circle" data-name="Icon ionic-ios-close-circle" class="cls-1" d="m139.22,0C62.33,0,0,62.33,0,139.22s62.33,139.22,139.22,139.22,139.22-62.33,139.22-139.22C278.46,62.34,216.14,0,139.26,0c-.01,0-.02,0-.03,0Zm35.27,189.63l-35.27-35.27-35.27,35.27c-4.07,4.29-10.84,4.47-15.13.4-4.29-4.07-4.47-10.84-.4-15.13.13-.14.26-.27.4-.4l35.27-35.27-35.27-35.27c-4.07-4.29-3.89-11.06.4-15.13,4.13-3.91,10.6-3.91,14.72,0l35.27,35.27,35.27-35.27c4.07-4.29,10.84-4.47,15.13-.4,4.29,4.07,4.47,10.84.4,15.13-.13.14-.26.27-.4.4l-35.27,35.27,35.27,35.27c4.15,4.19,4.15,10.94,0,15.13-4.12,4.18-10.85,4.23-15.03.11-.04-.03-.07-.07-.11-.11Z"/>
</svg>