<?xml version="1.0" encoding="UTF-8"?>
<svg id="Capa_1" data-name="Capa 1" xmlns="http://www.w3.org/2000/svg" viewBox="0 0 269.92 269.95">
  <defs>
    <style>
      .cls-1 {
        fill: #2c314a;
      }
    </style>
  </defs>
  <path id="Trazado_145" data-name="Trazado 145" class="cls-1" d="m269.92,110.72v48.5c-1.16,3.88-4.58,6.66-8.62,7-5.52,1.02-10.99,2.26-16.43,3.62-1.16.37-2.13,1.2-2.69,2.28-1.9,4.14-3.64,8.35-5.25,12.61-.34,1.01-.26,2.11.23,3.06,3.12,5.09,6.41,10.06,9.62,15.1,3.11,3.56,2.75,8.96-.81,12.07-.16.14-.32.27-.49.39-10.04,10.07-20.1,20.13-30.18,30.17-2.84,3.77-8.2,4.52-11.97,1.68-.17-.13-.33-.26-.49-.4-4.95-3.16-9.92-6.3-14.82-9.56-1.04-.79-2.44-.88-3.58-.23-4.07,1.8-8.29,3.35-12.34,5.22-1.08.56-1.9,1.53-2.27,2.7-1.35,5.44-2.63,10.92-3.62,16.43-.34,4.03-3.12,7.45-7,8.61h-48.52c-3.88-1.16-6.65-4.57-6.99-8.61-1.02-5.52-2.27-10.99-3.63-16.43-.37-1.16-1.19-2.13-2.27-2.7-4.14-1.9-8.35-3.63-12.61-5.25-1.01-.35-2.11-.27-3.06.21-5.09,3.12-10.06,6.41-15.1,9.61-3.56,3.1-8.96,2.73-12.06-.83-.13-.15-.26-.31-.38-.47-10.07-10.04-20.13-20.1-30.18-30.17-3.77-2.83-4.54-8.19-1.7-11.96.13-.17.26-.33.4-.49,3.21-5.03,6.5-10.01,9.61-15.1.49-.94.57-2.05.23-3.06-1.61-4.26-3.34-8.47-5.25-12.61-.56-1.09-1.53-1.91-2.69-2.28-5.44-1.35-10.92-2.62-16.43-3.62-4.03-.34-7.45-3.1-8.62-6.98v-48.5c1.16-3.88,4.58-6.66,8.62-7,5.52-1.02,10.99-2.26,16.43-3.62,1.17-.38,2.14-1.21,2.7-2.31,1.9-4.14,3.64-8.35,5.25-12.61.34-1.01.25-2.11-.23-3.06-3.12-5.09-6.41-10.06-9.61-15.1-3.09-3.57-2.71-8.96.86-12.05.14-.12.28-.24.43-.35,10.05-10.08,20.11-20.13,30.18-30.17,2.86-3.77,8.23-4.51,12-1.65.16.12.32.25.47.38,5.03,3.21,10.01,6.5,15.1,9.62.95.49,2.05.57,3.06.22,4.28-1.64,8.56-3.42,12.83-5.36.97-.48,1.71-1.32,2.04-2.35,1.35-5.62,2.66-11.27,3.71-16.96.39-3.94,3.13-7.24,6.93-8.35h48.5c3.88,1.16,6.66,4.57,7,8.61,1.02,5.52,2.26,10.99,3.62,16.43.37,1.16,1.19,2.13,2.27,2.7,4.07,1.86,8.26,3.4,12.34,5.22,1.13.65,2.54.55,3.58-.23,4.9-3.26,9.86-6.4,14.82-9.56,3.56-3.11,8.97-2.75,12.09.81.13.15.26.31.38.47,10.04,10.06,20.09,20.12,30.13,30.19,3.78,2.85,4.53,8.22,1.67,12-.12.16-.25.32-.38.47-3.21,5.03-6.5,10.01-9.62,15.1-.49.94-.57,2.05-.23,3.06,1.61,4.26,3.34,8.48,5.25,12.61.56,1.09,1.53,1.91,2.69,2.28,5.53,1.38,11.09,2.64,16.69,3.67,3.94.39,7.25,3.13,8.37,6.93Zm-134.92,72.63c26.74,0,48.41-21.69,48.4-48.42,0-26.74-21.69-48.41-48.42-48.4-26.71,0-48.37,21.64-48.4,48.35.09,26.71,21.71,48.35,48.42,48.47Z"/>
</svg>