<svg xmlns="http://www.w3.org/2000/svg" width="143.835" height="38.544" viewBox="0 0 143.835 38.544">
  <g id="logo2-03" transform="translate(0 -0.005)">
    <g id="Grupo_87" data-name="Grupo 87" transform="translate(0 0.005)">
      <path id="Trazado_132" data-name="Trazado 132" d="M1.027,109.174a1.012,1.012,0,0,1-.753-.274A1.018,1.018,0,0,1,0,108.148V88.4a1.015,1.015,0,0,1,.274-.753,1.015,1.015,0,0,1,.753-.274h9.138A.949.949,0,0,1,11.192,88.4v1.027a.949.949,0,0,1-1.027,1.027H4.834a1.579,1.579,0,0,0-1.58,1.58v3.79a1.579,1.579,0,0,0,1.58,1.58H8a.949.949,0,0,1,1.027,1.027v1.029a.968.968,0,0,1-.274.732,1.027,1.027,0,0,1-.753.3H4.834a1.579,1.579,0,0,0-1.58,1.58v6.084a1.015,1.015,0,0,1-.274.753,1.018,1.018,0,0,1-.753.274h-1.2Z" transform="translate(0 -70.724)" fill="#fff"/>
      <path id="Trazado_133" data-name="Trazado 133" d="M87.706,101.523a8.314,8.314,0,0,1-.6,3.2,7.144,7.144,0,0,1-1.679,2.483,7.816,7.816,0,0,1-2.551,1.61,9.2,9.2,0,0,1-6.436,0,7.845,7.845,0,0,1-2.553-1.61,7.1,7.1,0,0,1-1.677-2.483,8.314,8.314,0,0,1-.6-3.2V95.4a8.314,8.314,0,0,1,.6-3.2,7.114,7.114,0,0,1,1.677-2.483,7.821,7.821,0,0,1,2.553-1.608,9.2,9.2,0,0,1,6.436,0,7.864,7.864,0,0,1,2.551,1.608A7.162,7.162,0,0,1,87.106,92.2a8.35,8.35,0,0,1,.6,3.2ZM84.454,95.4a4.92,4.92,0,0,0-1.233-3.424,5.313,5.313,0,0,0-7.122,0A4.929,4.929,0,0,0,74.866,95.4v6.12a4.929,4.929,0,0,0,1.233,3.424,5.313,5.313,0,0,0,7.122,0,4.923,4.923,0,0,0,1.233-3.424Z" transform="translate(-57.966 -70.854)" fill="#fff"/>
      <path id="Trazado_134" data-name="Trazado 134" d="M190.864,109.174a1.346,1.346,0,0,1-1.269-.924l-4.039-7.215a.725.725,0,0,0-.718-.48h-2.446a1.149,1.149,0,0,0-1.149,1.149v6.444a.946.946,0,0,1-1.027,1.027h-1.2a.949.949,0,0,1-1.027-1.027V88.4a.949.949,0,0,1,1.027-1.027h7.019a6.641,6.641,0,0,1,2.568.5,6.218,6.218,0,0,1,3.441,3.441,6.641,6.641,0,0,1,.5,2.568,6.5,6.5,0,0,1-3.287,5.754c-.366.2-.444.535-.24.993l4.11,7.318a.915.915,0,0,1,.034.873.759.759,0,0,1-.72.36h-1.576Zm-5.2-11.7a4.031,4.031,0,0,0,1.17-.147,3.345,3.345,0,0,0,1.427-.848,3.681,3.681,0,0,0,.772-1.147,3.6,3.6,0,0,0,.292-1.456,3.34,3.34,0,0,0-1.063-2.5,3.437,3.437,0,0,0-1.425-.787,4.171,4.171,0,0,0-1.149-.137h-3.262a1.149,1.149,0,0,0-1.149,1.149v4.721a1.149,1.149,0,0,0,1.149,1.149h3.239Z" transform="translate(-144.077 -70.724)" fill="#fff"/>
      <path id="Trazado_135" data-name="Trazado 135" d="M293.468,109.174a.949.949,0,0,1-1.027-1.027V93.774a.415.415,0,0,0-.206-.412c-.135-.069-.251.023-.341.274l-3.46,7.166a1.245,1.245,0,0,1-1.233.926H285.01a1.242,1.242,0,0,1-1.233-.926l-3.458-7.166q-.137-.309-.343-.309c-.137,0-.206.149-.206.444v14.374a.949.949,0,0,1-1.027,1.027h-1.2a.946.946,0,0,1-1.025-1.027V88.4a.946.946,0,0,1,1.025-1.027h3.014a1.158,1.158,0,0,1,.753.223,1.365,1.365,0,0,1,.412.6l4.041,9.357q.1.343.326.326t.36-.326l4.041-9.357a1.324,1.324,0,0,1,.412-.6,1.155,1.155,0,0,1,.753-.223h3.012A.949.949,0,0,1,295.7,88.4v19.749a.949.949,0,0,1-1.027,1.027h-1.2Z" transform="translate(-223.834 -70.724)" fill="#fff"/>
      <path id="Trazado_136" data-name="Trazado 136" d="M410.08,108.927a1.06,1.06,0,0,1-.772.24,1.98,1.98,0,0,1-.8-.24l-9.967-5.573a.365.365,0,0,0-.427,0,.687.687,0,0,0-.257.343l-1.4,4.657a1.083,1.083,0,0,1-1.164.821h-1.679q-.992,0-.718-.958l6.852-19.92a1.3,1.3,0,0,1,.461-.737,1.393,1.393,0,0,1,.772-.189h2.4a1.4,1.4,0,0,1,.772.189,1.326,1.326,0,0,1,.463.737l6.539,18.748a1.082,1.082,0,0,1-.274,1.233Zm-7.911-17.584c-.16,0-.274.126-.341.375l-2.706,7.558a.982.982,0,0,0-.034.669.8.8,0,0,0,.343.36l6.438,3.519q.377.24.549.051a.426.426,0,0,0,.1-.429" transform="translate(-317.982 -70.724)" fill="#fff"/>
      <path id="Trazado_137" data-name="Trazado 137" d="M519.254,109.174a1.344,1.344,0,0,1-1.267-.924l-4.041-7.215a.727.727,0,0,0-.718-.48h-2.445a1.148,1.148,0,0,0-1.149,1.149v6.444a.949.949,0,0,1-1.029,1.027h-1.2a.949.949,0,0,1-1.027-1.027V88.4a.949.949,0,0,1,1.027-1.027h7.021a6.641,6.641,0,0,1,2.568.5,6.2,6.2,0,0,1,3.441,3.441,6.642,6.642,0,0,1,.5,2.568,6.5,6.5,0,0,1-3.287,5.754q-.549.306-.24.993l4.11,7.318a.915.915,0,0,1,.034.873.759.759,0,0,1-.72.36h-1.578Zm-5.2-11.7a4.031,4.031,0,0,0,1.17-.147,3.344,3.344,0,0,0,1.427-.848,3.682,3.682,0,0,0,.772-1.147,3.6,3.6,0,0,0,.292-1.456,3.34,3.34,0,0,0-1.063-2.5,3.437,3.437,0,0,0-1.425-.787,4.162,4.162,0,0,0-1.149-.137h-3.262a1.149,1.149,0,0,0-1.149,1.149v4.721a1.149,1.149,0,0,0,1.149,1.149h3.239Z" transform="translate(-409.898 -70.724)" fill="#fff"/>
      <path id="Trazado_138" data-name="Trazado 138" d="M693.6,109.174a.949.949,0,0,1-1.027-1.027V88.4A.949.949,0,0,1,693.6,87.37h9.14a.949.949,0,0,1,1.027,1.027v1.027a.949.949,0,0,1-1.027,1.027h-5.48a1.434,1.434,0,0,0-1.433,1.433v4.207a1.432,1.432,0,0,0,1.433,1.433h3.294a.949.949,0,0,1,1.029,1.029v1.027a.949.949,0,0,1-1.029,1.027h-3.294a1.434,1.434,0,0,0-1.433,1.433v2.618a1.432,1.432,0,0,0,1.433,1.433h6.164a.949.949,0,0,1,1.027,1.027v1.027a.949.949,0,0,1-1.027,1.027H693.6Z" transform="translate(-560.613 -70.724)" fill="#fff"/>
      <g id="Grupo_82" data-name="Grupo 82" transform="translate(115.645 0)">
        <g id="Grupo_81" data-name="Grupo 81">
          <path id="Trazado_139" data-name="Trazado 139" d="M645.674,43.129a9.732,9.732,0,0,0,2.224-6.867.138.138,0,0,1,.269-.05,7.718,7.718,0,0,0,1.618,3.108.135.135,0,0,1,.053.149,5.964,5.964,0,0,1-4.02,3.885A.138.138,0,0,1,645.674,43.129Z" transform="translate(-638.267 -29.238)" fill="#fff"/>
          <path id="Trazado_140" data-name="Trazado 140" d="M610.778,42.416a9.748,9.748,0,0,1-1.6-7.04.137.137,0,0,0-.261-.074,7.734,7.734,0,0,1-1.89,2.949.138.138,0,0,0-.069.143,5.961,5.961,0,0,0,3.654,4.23A.137.137,0,0,0,610.778,42.416Z" transform="translate(-606.957 -28.51)" fill="#fff"/>
          <g id="Grupo_80" data-name="Grupo 80" transform="translate(3.013)">
            <path id="Trazado_141" data-name="Trazado 141" d="M626.411.328c-.288-.448-.629-.352-.573-.175,1.071,3.115.814,7.012-.362,7.739a.151.151,0,0,1-.078.029c-1.056.025-1.359-1.732-1.429-3.191a.113.113,0,0,0-.213-.046,7.551,7.551,0,0,0,1.233,9.075.619.619,0,0,0,.9-.017C630.421,8.881,627.933,2.969,626.411.328Z" transform="translate(-622.772 -0.005)" fill="#fff"/>
          </g>
        </g>
      </g>
      <g id="Grupo_86" data-name="Grupo 86" transform="translate(113.266 16.718)">
        <g id="Grupo_85" data-name="Grupo 85">
          <g id="Grupo_83" data-name="Grupo 83" transform="translate(3.5 4.681)">
            <path id="Trazado_142" data-name="Trazado 142" d="M612.84,112.32l2.963,15.957a1.165,1.165,0,0,0,1.021,1.021h1.191a1.084,1.084,0,0,0,1.021-1.021s.591-3.23.591-3.645C619.4,124.312,612.834,112.285,612.84,112.32Z" transform="translate(-612.84 -112.32)" fill="#fff"/>
          </g>
          <g id="Grupo_84" data-name="Grupo 84">
            <path id="Trazado_143" data-name="Trazado 143" d="M610.357,88.022a1.012,1.012,0,0,0-.749-.272H595.491a.943.943,0,0,0-1.021,1.021v1.021a1,1,0,0,0,.272.747,4.655,4.655,0,0,0,1.36.2,2.078,2.078,0,0,1,.52.112c-.011-.008-.025-.019-.034-.025,1.919.593,8.3,7.023,9.147,7.884l1.01-6.227a2.039,2.039,0,0,1,1.905-1.736,6.6,6.6,0,0,0,1.705-.21,1.011,1.011,0,0,0,.272-.747V88.771A1,1,0,0,0,610.357,88.022Z" transform="translate(-594.47 -87.75)" fill="#fff"/>
          </g>
        </g>
      </g>
    </g>
  </g>
</svg>
