<?xml version="1.0" encoding="UTF-8"?>
<svg id="Capa_1" xmlns="http://www.w3.org/2000/svg" viewBox="0 0 1080 1475">
  <defs>
    <style>
      .cls-1 {
        fill: none;
      }

      .cls-2 {
        fill: #e0e4e4;
      }
    </style>
  </defs>
  <path class="cls-2" d="M547.88,1026.28c-3.03,4.85-5.27,10.49-7.14,15.5-3.69,9.95-8.87,19.13-11.79,28.79l-4.77,14.56c-1.64,4.93-3.39,9.97-4.84,15.56,0,0,18.85-13.85,24.24-23.72,5.58-9.9,6.96-21.06,9.39-31.51,2.08-10.07,5.59-19.03,11.65-27.18,5.77-8.31,14.5-14.79,21.74-22.93,0,0-19.38,9.77-27.7,17.61-4.09,3.91-7.75,8.42-10.8,13.34"/>
  <path class="cls-2" d="M664.13,1337.51c6.38-2.04,12.76-3.95,19.24-5.58,0,0-13.62-.28-20.33.37l-19.96,2.72c-6.62.99-13.42,1.08-19.74,3.18-6.39,2-12.46,4.45-18.73,7.89,0,0,14.16,3.15,20.87,2.54,6.77-.59,13.02-3.4,19.45-5.29l19.21-5.83Z"/>
  <path class="cls-2" d="M640.03,1065.48c-4.51,5.16-7.23,11.82-8.11,18.81-.75,7,.52,14.35,3.64,20.94,3.21,6.57,8.21,12.37,14.35,16.46,6.1,4.08,13.31,6.52,20.42,6.87,14.3.93,27.75-7.1,32.6-18.67-8.65,8.98-20.87,12.71-32.15,10.75-11.17-2-21.27-9.4-25.77-19.35-4.83-9.8-4.29-21.73,1.7-30.85,5.89-9.16,17.01-15.24,29.95-15.28-12.47-4.36-27.86-.31-36.61,10.32"/>
  <path class="cls-2" d="M866.22,958.11c4.27-4.91,13.29-14.7,13.29-14.7-5.78,3.36-11.21,7.29-16.31,11.68-2.53,2.2-5.37,4.23-7.23,7.16-1.85,2.87-3.47,6.17-3.54,9.86l.49.22c2.68-2.33,4.93-4.45,7.2-6.73,2.28-2.21,3.96-5.03,6.1-7.49"/>
  <path class="cls-2" d="M625.94,986.74c-5.23,4.22-8.52,10.83-9.5,17.8-.93,6.98.23,14.51,3.75,20.84,3.37,6.41,8.83,11.64,15.19,14.72,6.35,3.1,13.68,3.95,20.08,2.07-6.16-2.59-11.35-5.38-15.62-9.12-4.29-3.66-7.75-7.91-10.25-12.68-2.61-4.73-4.07-9.98-4.78-15.57-.69-5.64-.23-11.53,1.13-18.06"/>
  <path class="cls-2" d="M740.06,1428.01c2.46-1,5.05-2.09,7.74-3.22,25.67-10.77,60.83-25.54,91.47-15.61,5.32,1.72,9.82,3.82,13.76,6.1-2.1-8.57-8.54-16.04-14.04-21.08-1.82-.81-3.51-1.69-4.98-2.66-5.75-3.78-13.92-11.27-22.08-22.24-6.47-3.31-15.36-6.4-26.21-6.46-23.54-.12-32.83-11.18-15.85-13.56,14.85-2.08,20.21-12.72,18.87-20.51-2.13-1.09-4.2-2.38-6.4-3.37l-11.5-5.15c-3.84-1.8-11.51-6.05-11.51-6.05,4.33,0,8.62.48,12.92.92,4.28.53,8.54,1.27,12.75,2.19.81.18,1.65.31,2.49.45-1.57-5.98-2.88-12.28-3.82-18.94-.73-5.14-2.05-9.96-3.62-14.74-10-.62-23.63-.6-27.25-.27-4.64.33-14.26.73-14.26.73,4.18-2.32,8.59-4.16,13.07-5.92,4.51-1.67,9.16-3.04,13.96-4,3.33-.67,6.79-1.61,10.32-1.74-1.34-3.19-2.75-6.43-4.23-9.8-.79-1.8-1.62-3.7-2.44-5.58-17.26.91-22.79,17.06-22.79,17.06-26.04,6.65-33.35,21.66-33.35,21.66,8.52-1.86,30.83-4.34,36.79,4.24-22.16,11.71-23.36,34.53-23.36,34.53-26.87,5.07-25.61,17.11-25.61,17.11,21.04-3.98,29.51,5.71,29.51,5.71-60.13,14.3-58.81,35.23-58.81,35.23,18.71-11.63,47.31-15.73,47.31-15.73,1.07,16.48,14.36,37.92,14.36,37.92-38.12,14.78-53.82,31.36-59.84,40.06,15.61-7.44,32.93-14.14,47.93-19.93,6.75-2.61,13.09-5.05,18.68-7.34"/>
  <path class="cls-2" d="M687.38,1083.87c-.61-3.32-2.96-6.33-6.05-7.93-3.11-1.56-6.93-1.7-9.97-.24-3.06,1.36-5.3,4.25-5.56,7.27,4.49-3.91,9.39-4.17,13.11-2.28,3.72,1.9,6.4,6.03,5.86,11.95,2.28-1.98,3.3-5.49,2.61-8.76"/>
  <path class="cls-2" d="M703.84,1274.54s-19.77,3.88-29.4,6.71c-9.58,2.96-19.11,6.21-28.49,10.38-4.7,2.07-9.5,4.09-14.23,6.73-2.35,1.29-4.64,2.87-6.82,4.67-1.01.94-2.24,1.98-3.06,2.84l-2.38,2.53c-3.12,3.43-6.3,6.66-9.71,10.18-3.42,3.46-7.22,7.25-10.04,11.91,0,0,10.88-1.18,15.78-3.12,4.91-1.88,9.7-4.62,13.93-7.85l3.08-2.53,2.49-2.13c1.63-1.37,3.26-2.85,5.06-4.28,3.45-2.99,7.31-5.86,11.42-8.34,8.24-4.99,16.98-9.54,25.79-14.06,8.76-4.65,17.78-8.89,26.59-13.63"/>
  <path class="cls-2" d="M611.66,1009.08c-2.38,3.42-3.46,8.31-3.24,13.23.25,4.91,1.69,10.01,4.28,14.06,2.52,4.11,9.54,9.45,20.95,8.23-3.62-1.2-6.74-2.64-9.46-4.81-2.73-2.11-5.06-4.73-6.93-7.79-1.93-3.02-3.29-6.51-4.27-10.32-.98-3.83-1.37-7.95-1.33-12.6"/>
  <path class="cls-2" d="M780.64,489.6c14.74-6.63,27.44-23.97,28.92-39.47.47-4.91-.19-9.34-1.89-13.29l.55,9.55c.25,4.41-3.11,8.18-7.51,8.43l-3.41.2c-3.19,12.71-12.93,22.69-29.67,30.22-15.99,7.2-36.33,22.66-42.41,55.45-5.12,27.64-13.4,67.83-26.05,97.69-13.21,31.18-27.92,72.41-28.67,84.65-.12,2.01.43,4.33,1.14,7.26.38,1.6.8,3.4,1.19,5.41,2.82,3.64,6.93,7.28,12.05,6.99-.42-3.54-1.1-6.42-1.71-8.97-.84-3.49-1.63-6.79-1.41-10.39.95-15.76,18.59-62.44,29.49-88.16,12.24-28.9,20.35-68.33,25.38-95.48,6.7-36.11,25.85-43.22,38.53-47.93,1.95-.72,3.8-1.4,5.48-2.16"/>
  <path class="cls-2" d="M770.71,527.15c-3.18,3.19-4.65,8.6-4.65,8.6-1.63,6.97-6.2,12.57-6.2,12.57,0,0,.5-3.86-2.11-12.93-1.46-5.07-5.6-3.49-8.96-1.11-.61,2.29-1.19,4.69-1.69,7.35-2.85,15.36-6.71,34.59-11.72,53.78,13.44,6.7,19.88,23.55,19.88,23.55-3.4,23.09-15.7,62.47-16.01,63.46,4.12-7.92,8.23-16.43,11.55-24.32,30.4-72.1,27.5-114.36,25.11-128.43-1.73-.85-3.47-1.71-5.21-2.53"/>
  <path class="cls-2" d="M779.18,895.53c-1.57-3.24-3.11-7.13-4.3-12.09-10.45.8-18.26,3.25-24.04,6.23,9.29,3.22,12.17,11.97,12.17,11.97-14.34.38-18.9,13.51-18.9,13.51-7.33,9.34-8.68,33.63-8.89,45.5,1.86,3.47,3.83,6.88,5.81,10.3l14.25,23.56c3.74,8.38,7.31,16.92,10.8,25.58,2.36,5.99,4.48,11.91,6.55,17.84,2.65,2.57,3.23-.55,3.14-5.32-.22-1.07-.46-2.16-.64-3.18-1.38-8.07-1.83-26.38-1.68-43.88-1-8.41-3.38-20.38-7.92-26.5-5.07-6.85,5.64-12.44,11.5-30.64.98-12.93,1.84-27.52,2.15-32.87M753.67,942.13c.06,3.76-1.1,7.51-.52,11.65.59,4.03,1.92,8.15,3.78,12.15,1.77,4.07,4.25,7.88,7.03,11.56l-.71.79c-4.03-2.52-7.56-5.79-10.79-9.46-3.15-3.72-5.83-8.03-7.56-12.91-1.72-4.76-3.53-10.42-1.7-15.73,1.71-5.19,5.13-9.67,10.09-11.99l.88.59c.03,5.47-.45,9.45-.5,13.34"/>
  <path class="cls-2" d="M622.45,1081c-3.49,5.01-5.07,12.17-4.75,19.38.36,7.2,2.47,14.67,6.27,20.59,8.32,8.9,25.89,14.86,30.68,12.06-5.31-1.76-9.87-3.86-13.86-7.05-3.99-3.1-7.41-6.92-10.15-11.41-2.82-4.42-4.81-9.54-6.25-15.11-1.44-5.62-2-11.65-1.94-18.46"/>
  <path class="cls-2" d="M865.31,929.28c-4.19,2.47-8.9,4.48-12.13,8.29-3.24,3.75-6.03,8.11-7.1,13.6l.79.71c5.38-1.49,9.36-3.81,13.31-6.28,3.97-2.37,6.65-6.35,10.17-9.45,7.02-6.13,21.32-19.12,21.32-19.12-4.62,1.5-9.03,3.46-13.47,5.42-4.4,2.05-8.69,4.32-12.87,6.83"/>
  <path class="cls-2" d="M826.51,781.18s-10.86,5.12-15.74,7.33c-2.51,1.07-15.53,5.87-17.98,9.16,0,0,9.05,6.38,22.61-2,2.36-2.07,4.45-4.34,6.31-6.76,1.78-2.5,3.51-4.95,4.8-7.72"/>
  <path class="cls-2" d="M810.99,1176.01c1.75-2.06,3.46-5.37,4.39-10.94,1.39-8.32,1.49-18.54,1.6-29.37.05-5.07.1-10.3.28-15.64.61-18.48.63-32.68-1.08-50.56-1.53-15.96-9.14-34.89-10.66-38.54-2.2-3.34-9.2-13.92-16.08-31.06.13,11.48.58,21.75,1.45,26.83.51,3.01,1.3,6.3,2.16,9.92,3.35,14.11,7.94,33.43,3.84,60.18-1.46,9.54.76,14.16,3.59,20.01,5.38,11.15,8.85,21.7.75,44.29,3.33,3.06,7.26,7.87,9.77,14.87"/>
  <path class="cls-2" d="M500.85,1160.38c5.18-1.36,10.29-2.86,15.14-5.02,0,0-10.63-.17-15.78-.26-5.12,0-10.21-.25-15.19-.76-5.02-.53-9.71-2.35-14.54-2.49-4.9-.24-9.67-.46-15.56-.1l-.48.95c3.43,5.01,8.7,7.86,14,9.6,5.38,1.85,11.09.93,16.47.56,5.42-.37,10.75-1.22,15.95-2.47"/>
  <path class="cls-2" d="M453.33,1023.25c4.7-.8,7.11-2.69,9.94-14.23,2.83-11.54-6.73-21.61-8.79-12.37-1.1,4.92-3.71,7.94-5.92,9.72.42,5.28.89,10.76-1.15,15.29-2.21,4.9-2.06,9.24.59,17.35,2.65,8.11-1.41,9.6-3.71,16.5-2.29,6.9-3.13,10.86,5.8,12.24,4.28.66,7.7-1.85,10.1-4.65,1.27-6.53,2.44-13.03,3.45-19.4-3.12-.76-5.67-4.26-5.67-4.26,6.14-3.4,4.11-10.48,4.11-10.48-2.41,1.9-13.45-4.91-8.75-5.7"/>
  <path class="cls-2" d="M704.15,914.77c.92-5.96-.65-16.02.53-27.96,1.18-11.94-2.39-37.41-3.09-52.1-.7-14.68-.79-74.65-.79-74.65-6.65-.28-42.64.17-45.02-6.6-2.37-6.76.47-41.95.47-41.95-5.29-.9-82.77,3.77-82.77,3.77,8.8,12.37,23.51,11,35.98,15.54,12.46,4.53,3.65,23.47-2.16,19.23-5.82-4.25-15.42-13.32-16.86-10.72-1.44,2.6,4.08,13.5,13.51,26.56,9.43,13.06,14.72,13.96,14.72,13.96-4.95-8.88.74-17.29.74-17.29,12.09,13.18,52.52,33.57,52.52,33.57,14.81,11.96,20.78,43.53,10.23,41.08-10.55-2.45-22.09,2.38-22.09,2.38,11.86,3.17,27.85,18.52,27.85,18.52-4.16,3.82-20.84,4.43-20.84,4.43,9.14,4.39,22.62,16.29,24.16,27.02,1.54,10.73,12.91,25.21,12.91,25.21"/>
  <path class="cls-2" d="M548.23,1179.94c6.84-1.35,13.59-2.92,20.29-4.61,6.66-1.87,13.29-3.71,19.88-5.74,0,0-27.63,1.33-41.17,1.89-6.78.34-13.55-.48-20.17.52-6.66.94-13.27,1.99-20.32,4.35l-.09,1.06c6.62,3.51,13.74,4.76,20.78,5.24,7.08.54,13.98-1.43,20.81-2.71"/>
  <path class="cls-2" d="M445.9,1299.79c-8.43-3.36-16.65-7.9-25.83-8.97-4.54-.65-9.18-.94-13.87-.75-4.69.16-14.47,3.87-14.47,3.87,8.11,5.72,16.22,9.24,24.49,12.38,8.2,3.26,17.19,3.64,25.84,5.65,8.62,2.02,17.26,4.16,25.88,6.43,8.67,2.15,17.2,4.75,25.78,7.46,0,0-14.89-10.71-22.95-14.93-8.12-4.08-16.41-7.79-24.87-11.15"/>
  <path class="cls-2" d="M475.12,1190.59c4.43.31,8.6.56,13.58,1.53-2.37-4.64-7.04-7.61-11.47-9.61-4.54-1.98-9.23-3.09-13.81-3.79-4.59-.71-9.11-.94-13.5-1.1-4.47-.27-8.45.09-13.15-1.72.61,2.48,2.59,4.7,4.65,6.24,2.13,1.54,4.39,2.74,6.7,3.65,4.6,1.8,9.21,2.77,13.72,3.45,4.51.68,8.92,1.02,13.29,1.34"/>
  <path class="cls-2" d="M657.61,1241.93c18.73-5.29,36.02-13.2,52.88-21.8,6.88-3.5,17.06-9.86,24.96-15.12-3.13,4.45-5.21,9.68-5.21,9.68,11.94-6.48,17.43-2.58,17.43-2.58-21.82,10.19-26.41,19.09-27,24.04,9.23-3.36,17.33-7.04,24.68-12.22,4.68-3.3,7.92-5.36,10.42-6.73-2.24-9.38-4.43-19.39-6.55-29.54l-4.81-7.77c-2.4,1.46-4.75,2.88-7.05,4.25,3.95,4.65,3.53,12.33,3.27,14.83-11.31,4.41-22.47,9.09-33.62,13.64-8.7,3.47-17.29,7.14-26.01,10.33-8.69,3.31-17.38,6.42-26.18,8.71-17.61,4.97-36.09,7.16-54.69,9.98-18.53,2.76-37.74,5.78-55.07,13.72,18.58-3.66,37.14-4.22,55.94-5.45,18.77-1.15,37.89-2.91,56.61-7.98"/>
  <path class="cls-2" d="M425.05,520.53c-3.11.52-2.32,4.89.44,5.17,2.38,1.63,5.67-1.61,3.45-3.93-1.13-1.18-2.28-1.51-3.88-1.23"/>
  <path class="cls-2" d="M671.69,438.79c.09.08.2.15.31.22,2.4,1.83,5.09,2.6,8.17,1.97.9-.18,4.12-6.47,1.09-6.8-2.62-.28-11.89,2.67-9.91,4.38.1.09.23.15.33.24"/>
  <path class="cls-2" d="M675.96,467.01c-.18,1.2-.53,2.31-.97,3.38-2.52.86-4.02,3.02-5.12,5.46-1.64,3.62-2.97,7.32-3.29,11.31-.23,2.82,3.4,3.51,4.9,1.55,1.48-1.93,2.95-3.86,4.43-5.8.6-.78.62-1.56.35-2.23.07-.19,3.88-7.12,4.69-10.83,1.09-4.98,1.4-9.46,3.69-14.15,1.49-3.05-7.92,6.25-8.67,11.31"/>
  <path class="cls-2" d="M673.56,462.11c1.66-2.99-2.81-5.87-4.48-2.88-.12.22-.24.44-.36.65-1.66,2.99,2.81,5.87,4.48,2.88.12-.22.24-.44.36-.65"/>
  <path class="cls-2" d="M474.7,538.51l-3.55-.15c-3.43-.15-3.65,5.17-.23,5.32l3.55.15c3.43.15,3.65-5.17.23-5.32"/>
  <path class="cls-2" d="M508.67,545.97c-.11-.1-.25-.18-.38-.27-1.94-1.45-4.89-2.16-7.78-2.67-2.53-.82-5.07-1.61-7.62-2.28-3.28-.87-5.99-.89-8.76,1.17-1.31.97-1.07,3.45.36,4.2,5.76,3.03,17.36,10.24,23.9,5.77,2.12-1.45,2.31-4.15.36-5.87-.02-.02-.05-.03-.06-.05"/>
  <path class="cls-2" d="M584.48,305.31c.61,1.73,1.68,3.41,3.2,4.82,4.16,3.86,10.06,4.26,13.16.9,3.11-3.36,2.25-9.2-1.91-13.05-3.8-3.52-9.02-4.12-12.26-1.65-.5-.93-1.17-1.81-2.01-2.58-3.34-3.09-8.06-3.41-10.55-.72-2.49,2.69-1.81,7.37,1.53,10.46,2.69,2.49,6.24,3.08,8.84,1.84"/>
  <path class="cls-2" d="M542.4,329.9c.73.03,1.36-.54,1.39-1.27.03-.73-.54-1.36-1.27-1.39-.73-.03-1.36.54-1.39,1.28-.03.73.54,1.36,1.27,1.39"/>
  <path class="cls-2" d="M525.64,302.7c.96-.39,1.43-1.48,1.05-2.45-.39-.96-1.48-1.43-2.45-1.05-.97.39-1.43,1.48-1.05,2.45.39.97,1.48,1.44,2.45,1.05"/>
  <path class="cls-2" d="M609.17,398.77c.96-.39,1.43-1.48,1.05-2.45-.39-.96-1.48-1.43-2.45-1.05-.96.39-1.43,1.48-1.04,2.45.39.97,1.48,1.44,2.45,1.05"/>
  <path class="cls-2" d="M554.43,336.75c.64-.26.95-.98.69-1.62-.26-.64-.98-.95-1.63-.69-.64.26-.95.98-.69,1.62.26.64.98.95,1.62.69"/>
  <path class="cls-2" d="M572.24,375.02c.11-2.62,1.88-7.89,5.95-7.72-2.84-.12-5.2-3.3-5.02-7.64-.15,3.62-1.77,7.35-5.74,7.18,3.26.14,5.07,2.12,4.81,8.18"/>
  <path class="cls-2" d="M586.02,324.02c-.39-.96-1.48-1.43-2.45-1.05-.96.39-1.43,1.48-1.04,2.45.39.97,1.48,1.43,2.44,1.05.97-.39,1.44-1.48,1.05-2.45"/>
  <path class="cls-2" d="M301.41,574.04s.23,2.38,6.23,10.11c0,0-5.59-17.16-4.91-32.92,0,0,2.96-6.26,25.96-5.65-1.5-8.29-2.32-16.85-2.38-25.67-5.43,2.09-12.22,5.95-22.78,12.35-12.67,7.68-18.14,15.51-20.48,20.4.73,4.43,2.82,15.31,7.54,30.65,2.77-3.07,7.18-7.54,10.83-9.27"/>
  <path class="cls-2" d="M202.54,655.11c15.82,7.72,37.91,21.43,59.77,42.13,17.6,16.67,30.36,34.95,39.63,52.1,4.91-1.79,2.3-21.46-1.17-39.33-2.31-7.52-5.08-14.89-8.16-22.16.46,4.55.58,9.56.03,15.15-13.28-32.1-33.57-49.52-33.57-49.52,6.15,5.59,6.59,15.94,6.59,15.94l-2.21,4.93c4.93,9.23,2.61,16.74,2.61,16.74-26.22-25.54-50.44-33.5-63.53-35.99"/>
  <path class="cls-2" d="M253.32,629.86c2.78,2.07,5.05,4.64,7.73,6.62,2.68,2.05,5.22,4.09,8.13,6.51l.48-.24c-.35-3.9-2.48-7.33-4.95-10.13-2.49-2.87-5.91-4.57-9.09-6.34-6.42-3.45-13.22-6.2-20.43-7.09,0,0,6.38,3.24,9.4,5,3.05,1.7,5.99,3.59,8.73,5.68"/>
  <path class="cls-2" d="M422.12,516.9c-.1-.23-.21-.45-.31-.68-1.43-3.12-6.13-.62-4.71,2.49.1.23.21.45.31.68,1.42,3.12,6.13.62,4.71-2.49"/>
  <path class="cls-2" d="M696.74,947.76c-26.27.84-52.47,2.24-78.72,2.61-26.22.76-52.45,1.18-78.67,1.44-26.22.17-52.44.43-78.65.11-24.69-.12-49.43-.48-74.05-1.23-3.43-25.71-5.4-51.86-7.59-77.91-2.11-26.36-3.95-52.78-5.79-79.18l33.1-3.99,36.88-4.65,2.03-.26.06-1.89c.4-11.8-.23-23.36-.79-34.97-.58-11.6-1.49-23.17-2.54-34.73v34.78c-.13,10.88-.25,21.85-1.16,32.56l-35.12,2.7-37.04,3.05-3.67.3.13,3.82c.91,27.75,2.31,55.44,4.03,83.15.81,13.85,1.89,27.7,3.08,41.55,1.22,13.86,2.5,27.69,4.43,41.61l.61,4.42,4.45.13c26.38.77,52.64.96,78.95.84,26.29-.3,52.59-.71,78.86-1.88,26.27-.99,142.71-1.2,157.18-12.4"/>
  <path class="cls-2" d="M295.47,483.87l-29.86,1.72c.31,6.38.7,12.64,1.14,18.65,9.07-1.88,25.24-5.01,47.88-8.62-2.12-5.47-9.97-9.21-19.16-11.75"/>
  <path class="cls-2" d="M681.39,990.35c-.61-3.32-2.96-6.33-6.05-7.93-3.11-1.56-6.93-1.7-9.97-.24-3.06,1.36-5.3,4.25-5.56,7.27,4.49-3.91,9.39-4.17,13.11-2.28,3.72,1.9,6.4,6.03,5.86,11.95,2.28-1.98,3.3-5.49,2.61-8.76"/>
  <path class="cls-2" d="M713.23,1060.81c-1.07-2.24-3.21-6.18-5.84-10.93-2.05-.43-4.66-1.08-7.17-2.03-4.09-1.56-1.04-6.86-.62-11.9-2.3-4.1-4.62-8.25-6.81-12.22-5.08-4.87-12.06-9.63-17.28-10.69-7.62-1.54-6.04-12.21-12.89-10.07.04.61.07.97.07.97-.11,8.2,7.42,21.25,11.59,27.83,2.19,2.02,4.32,4.13,6.26,6.45.03.03.06.07.09.11,9.2,7.69,24.65,28.73,24.65,28.73-1.57,5.59,4.06,16.72,4.06,16.72l5.19.67c-.95,2.35-2.34,4.94-1.89,9.29.56,1.11,1.08,2.24,1.65,3.35,3.66,7,7.42,13.94,11.29,20.84,4.21,3.93,7.67,3.85,10.2,2.58-.56-2.66-1.1-5.22-1.62-7.59-1.45-6.6-3.01-12.81-4.63-18.74-.51-1.05-1.07-2.07-1.57-3.12-4.89-10.07-10.11-20.31-14.73-30.23"/>
  <path class="cls-2" d="M394.02,492.43c.1.34.19.67.29,1.01.94,3.28,6.14,2.11,5.19-1.19-.1-.34-.19-.68-.29-1.01-.94-3.28-6.14-2.11-5.19,1.19"/>
  <path class="cls-2" d="M409.49,500.74c-3.43-.15-3.65,5.17-.23,5.32,3.43.15,3.65-5.17.23-5.32"/>
  <path class="cls-2" d="M541.77,238.5c-36.9-1.3-55.99,4.14-65.01,8.26,15.73-2.63,32.59-3.92,50.61-3.73,75.83.77,123.03,24.31,152.14,56.37,5.6,5.41,14.4,13.38,14.43,10.04.12-17.06-27.44-42.37-32.17-46.58-25.88-20.86-62.49-35.83-113.87-39.35,7.53,8.63-6.14,14.99-6.14,14.99"/>
  <path class="cls-2" d="M529.13,179.17c-60.65-.69-108.88,16.14-143.36,50.03-20.3,19.96-35.53,45.97-45.02,76.26,0,3.69.46,6.57,1.11,8.77,5.58-12.58,12.41-24.16,20.45-34.61-.46.52-.71.83-.71.83,16.61-31.09,26.14-33.69,29.49-39.32,3.35-5.63,13.57-10.96,20.17-14.68,6.6-3.71,3.11-5.2,9.98-10.13,6.87-4.93,12.07-6.91,12.07-6.91-3.74-.83-9.02-2.06-9.02-2.06,0,0,18.8-8.63,28.26-11.77,9.46-3.15,19.32-5.1,35.49-4.25,15.09.79,8.95,8.82.49,14.46-5.5,3.66-5.91,7.04-5.53,8.98,14.27-1.98,29.4-2.91,45.41-2.75,133.05,1.42,181.35,70.42,197.23,135.5-10.33-73.85-52.08-166.63-196.53-168.35M515.92,204.55c-2.36.13-4.62.76-6.78.56l-6.92-.62-.25-.47c1.48-2.47,4.23-3.67,6.72-4.22,2.57-.61,5.05.16,7.42.5,4.77.7,14.12,2.69,14.12,2.69-4.71,1.07-9.63,1.32-14.31,1.56M548.61,197.37c-1.96,2.1-4.9,2.71-7.45,2.73-2.64.06-4.91-1.21-7.16-2.03-4.52-1.68-13.25-5.58-13.25-5.58,4.83-.07,9.69.72,14.33,1.45,2.33.37,4.68.22,6.74.87l6.64,2.05.15.51Z"/>
  <path class="cls-2" d="M307.82,670.36c-11.38-14.26-20.2-31.29-20.2-31.29-.67,5.41-2.47,12.36-3.62,16.49,2.96,4.21,5.71,8.57,8.4,12.91,7.41,12.28,14.08,25.1,19.41,38.52,4.68,11.97,8.71,24.26,11.67,36.83,10.09-18.07,11.54-35.89,10.96-47.54-4.25-6.54-8.95-13.97-14.18-22.51-8.23-13.43-15.02-26.25-20.72-38.26,2.27,12.97,8.28,34.86,8.28,34.86"/>
  <path class="cls-2" d="M352.86,602.52c-2.63-3.65-5.08-7.42-7.34-11.29-3.89,2.45-9.16,6-12.34,9.16,0,0-11.2-.93-16.22-8.08,0,0-1.35,9.1,2.87,15.06,0,0-9.14-.95-12.94-5.44,0,0-.79,2.96,2.03,7.08,0,0-3.57,3.01-6.59,6.47,6.65,15.86,15.4,33.72,27.04,52.72,12.4,20.24,21.64,33.95,28.48,43.32,5.92.97,10.47-1.56,10.47-1.56-7.78-10.19-8.87-22.84-8.87-22.84,12.44,18.86,28.05,23.66,28.05,23.66-12.99-20.99-11.32-36.6-11.32-36.6-33.38-37.35-35.11-58.47-35.11-58.47,2.15-6.94,8.71-11.41,11.8-13.19"/>
  <path class="cls-2" d="M895.45,683.71c-4.6,3.4-9.11,7.79-14.51,11.98-5.1,3.99-10.3,7.78-15.6,11.49-5.22,3.72-10.78,7.43-18.06,8.33,3.29-6.28,7.32-11.05,11.87-15.55l13.15-13.81c4.14-4.3,8.18-9.44,13.48-14.14,3.37-2.97,7.26-5.99,12-8.13-1.71-5.88-3.88-12.1-5.65-14.56l-8.43-9.51c-16.24,2.3-35.09,13.63-54.64,33.12-9.21,9.17-16.4,17.38-22.18,24.85,7.76-.56,7.76,11.24,6.85,19.29,6.21-4.86,12.57-9.48,19.1-13.84,7.26-4.53,14.52-9.17,22.6-12.27,0,0-13.1,10.92-19.38,16.52-6.35,5.49-12.49,11.24-18.33,17.23-2.02,2.03-3.92,4.16-5.81,6.31.04,13.67,10.01,16.72,10.01,16.72,7-2.59,15.25,1.77,15.25,1.77-4.28,6.59-19.46,18.78-19.46,18.78,16.4-1.82,33.75-18.06,33.75-18.06,10.71,22.11-11.34,49.37-11.34,49.37,10.87.25,14.9,4.64,14.9,4.64-24.14,8.74-29.2,18.07-29.2,18.07,0,0,36.01-17.38,42.38-4.4,12.87,26.2,35.5,31.72,35.5,31.72-33.52,13.46-50.26,26.59-57.95,34.23,6.98-3.49,14.27-6.49,21.2-8.81,8-2.69,15.27-5.75,22.3-8.73,15.15-6.4,29.46-12.44,48.43-13.73,6.38-.43,11.21-1.8,16.32-3.24,8.17-2.32,16.65-4.63,30.06-2.3.66-6.75.5-19.77-7.3-34.7-4.25-8.14-5.17-13.13-5.98-17.53-.73-3.93-1.3-7.04-4.76-13.1-.99-1.73-2.04-3.53-3.11-5.37-6.6-11.3-14.08-24.12-16.33-36.36-2.13-11.6-14.59-36.57-19.7-42.4-3.91-4.46-5.81-9.08-7.33-12.79-2.49-6.08-3.19-7.65-11.29-7.57-3.79.68-8.36,3.13-12.81,6.49M938.59,800.25c-5.83-4.66-11.86-9.23-17.67-14.52-5.73-5.19-12.75-10.46-15.75-18.78-3.09-8.03-3.61-17.64.81-25.35h1.6c4.49,7.37,7.88,12.7,11.77,18,3.94,5.06,6.48,11.62,10.94,17.45l14.01,17.63c4.53,6.2,9.17,12.64,11.97,19.9,0,0-11.77-9.76-17.69-14.33"/>
  <path class="cls-2" d="M367.52,1460.29c-.42-.17-.85-.31-1.27-.47-4.42.93-7.6,2.39-7.6,2.39,8.75,3.04,26.95,13.59,40.14,27.04-27.85-14.16-53.01-22.95-79.75-20.86,31.11,4.88,64.21,22.77,94.19,39.01,27.05,14.65,38.37,27.67,43.47,40.62,1.73-4.56,2.52-9.23,2.69-11.5l.06-.91c1.49-16.98-35.32-52.76-91.93-75.31"/>
  <path class="cls-2" d="M578.95,1360.6l2.98,1.14,1.37,2.87c.76,1.58,4.46,9.89,3.23,17.88-.3,1.91-.11,3.09,7.33,11.2,7.36,8.02,6.41,14.41,5.64,19.53-.57,3.83-1.21,8.16,1.26,16.3,5.36,17.62,15.34,44,27.34,65.56,1.78-4.3,4.13-8.7,7.2-12.93-6.92-7.59-10.1-19.24-16.97-37.67-7.57-20.31-9.15-24.82-7.19-39.39,1.96-14.57-12.93-19.65-17.4-29.17-4.48-9.52-1.92-27.62-1.92-27.62-11.12,2.58-20.86.82-33.22.02-3.72-2.11-7.37-3.72-11.11-5.19-4.05-1.64-8.46-2.17-12.72-3.33-8.5-2.32-25.79-6.82-25.79-6.82,7.8,4.36,15.82,8.3,24.08,11.77,2.75,1.15,5.47,2.47,8.3,3.48-.52.03-.98.02-1.51.06-22.72,1.69-47.89-1.61-47.89-1.61,0,0,14.4,5.95,14.29,18.82-.11,12.88-8.06,22.3-8.06,22.3-3.72-6.38-17.06-6.06-17.06-6.06,6.49,3.83,10.03,14.64,10.03,14.64.47,9.79-4.44,20.68-4.44,20.68-11.04-22.24-31.85-23.58-31.85-23.58,0,0,10.93,4.02,17.11,25.61,6.18,21.58-35.15,1.6-35.15,1.6-32.6-15.39-57.02-17.37-68.78-17.17,2.06.55,4.05,1,6.15,1.61,62.04,17.84,76.21,34.08,89.9,49.79,1.18,1.35,2.35,2.69,3.55,4.03,9.03,10.05,12.9,23.53,14.52,34.48.82-2.73,1.38-6.42,1.54-11.55.62-19.93,7.56-41.01,13.74-52.16,1.81-3.26,2.56-9.05,3.28-14.64,1.1-8.53,2.24-17.35,7.63-23.14,3.26-3.51,5.43-14.58,5.87-20.96l.25-3.66,2.93-2.19c1.01-.77,25.29-18.46,61.54-4.53"/>
  <path class="cls-2" d="M524.78,357.77c.96-.39,1.43-1.48,1.05-2.45-.39-.96-1.48-1.43-2.45-1.05-.97.39-1.44,1.48-1.05,2.45.39.97,1.48,1.43,2.45,1.05"/>
  <path class="cls-2" d="M1048.79,1079.55c-2.04-7.12-4.85-14.55-7.83-22.43-4.94-13.05-10.04-26.55-11.59-39.13-1.78-14.47-6.5-22.16-11.6-27.23-17.05-12.31-44.72-12.35-66.05-9.46,1.61,4.34-4.1,11.55-4.1,11.55-13.37,1.09-35.71,9.46-37.34,16.39,9.88-5.24,32.91-6.25,32.91-6.25-3.74,9.58-1.02,23.61,15.53,33.98-21.59,6.4-24.4,16.94-24.4,16.94,16.77-3.28,40.59-13.91,54.32,0-23.97,15.29-17.67,39.21-17.67,39.21-23.72,1.65-21.99,8.05-30.65,8.01-3.25-.02-9.41-8.31-13.37-14.2.03,3.39.64,6.08,1.7,8.31,1.02,2.24,2.35,4.24,3.99,6.45,1.59,2.17,3.86,4.41,6.28,5.46,1.17.54,2.34.74,2.87.79-.46.51,2.45-.93,4.28-1.64,3.99-1.61,8.04-2.77,12.08-3.85,8.13-1.93,24.87-1.7,24.87-1.7-2.73.9-5.36,1.98-8,3.03l2.5,16.26c-29.89,12.94-35.05,26.3-35.36,33.38.43-.48.82-.98,1.26-1.45,2.51-2.44,5.12-4.74,7.73-7.05,5.24-4.58,11.09-8.59,17.51-11.36,6.43-2.74,13.3-4.15,19.99-4.34,0,0-12.26,5.33-17.46,9.02-1.82,1.23-3.47,2.67-5.14,4.08-13.87,18.7-9.19,27.41-4.79,31.01,4.24-1.61,8.59-2.94,13.04-3.94,24.7-5.51,38.77-2.89,51.19-.57,3.35.62,6.64,1.24,10.1,1.67,6.18.76,11.39,2.93,15.64,5.59,0-.06-.02-.13-.03-.19-.94-6.54-1.84-12.73-1.26-17.87,1.24-10.96,3.82-61.19-1.12-78.47M1002.89,1031.19c-5.12-1.95-10.32-3.6-15.5-4.83-1.3-.26-2.6-.55-3.91-.67-1.18-.1-2.8-.37-4.53-.7-3.3-.79-6.44-2.45-8.9-4.77-4.86-4.7-7.62-11.07-6.8-17.52l1.02-.31c4.58,4.03,8.4,7.24,12.34,9.44l5.75,3.19c.95.47,2,1,3.54,1.57l4.12,1.69c5.44,2.25,10.53,5.02,15.33,8.21,4.68,3.35,9.45,6.66,13,11.34,0,0-10.35-4.67-15.46-6.62"/>
  <path class="cls-2" d="M1049.82,1196.02s.02-.04.04-.06c-2.68-3.29-8.14-8.61-16.25-9.61-3.8-.47-7.41-1.13-11.09-1.82-11.7-2.19-22.84-4.21-43.48.2-2.57,2.98-4.66,6.4-4.75,9.67,0,0-9.78,4.7-10.37,11.51,2.3-1.43,4.7-2.7,7.2-3.63,3.66-1.33,7.47-2.21,11.35-2.42,3.86-.25,7.82,0,11.65,1.39-4.8,2.5-9.36,4.35-13.85,6.08-2.53,2.61-6.54,7.94-4.65,13.87,15.94-6.6,32.26-7.32,49.45-2.01,8.48,2.62,14.19,5.77,18.14,8.99.22-1.98.35-4.14.21-6.73-.76-14.59,2.44-20.15,6.39-25.43"/>
  <path class="cls-2" d="M869.87,605.43c-3.58-5.09-16.9-22.25-30.63-33.84-11.95-10.08-32.21-25.31-49.99-35.06-.58-.31-1.17-.61-1.75-.92,1.7,18.1.63,53.08-18.77,106.03l-2.31,33.08c7.49-14.11,20.53-28.21,28.24-52.53,7.84,18.99-6.07,55.7-6.07,55.7-8.58,15.71-6.81,26.36-4.44,32.01,8.8-13.73,21.22-28.44,37.37-44.53,32.93-32.82,57.95-38.45,74.46-36.24-3.16-2.94-4.86-5.59-6-7.43-.35-.56-.83-1.34-1.42-1.69-5.21-1.87-13.22-6.81-18.68-14.58M839.89,628.44c-3.18,2.88-6.34,5.79-10.02,8.52-1.88,1.36-3.71,2.79-6.49,3.96-1.44.48-3.16,1.32-6.31.66-1.56-.36-3.22-1.49-4.11-2.69-.94-1.19-1.37-2.36-1.62-3.27-.88-3.7-.49-6.01-.25-8.48.32-2.39.77-4.64,1.36-6.86,1.11-4.41,2.73-8.44,4.07-12.45,2.89-7.99,5.99-15.3,5.75-24.22,2.67,3.65,3.78,8.46,4,13.04.23,4.62.1,7.92-1.06,13.5-2.91,14.08,5.46,14.18,9.4,12.34,3.93-1.83,8.21-4.76,12.32-6.57,4.1-1.71,8.61-3.2,13.09-2.85-7.96,3.6-13.68,9.74-20.11,15.36"/>
  <path class="cls-2" d="M794.01,199.23l1.7,29.54c3.49,3.66,5.11,7.98,5.11,7.98-2.27,2.86-3.43,6.99-4.02,10.91l.67,11.71c4.99,2.45,13.26.02,13.26.02-1.94,3.69-7.26,8.79-7.26,8.79,2.99,2.79,12.89,4.99,9.54,10.63-3.35,5.63-10.1,7.78-10.7,15.31-.59,7.53,4.87,11.76,4.87,11.76-2.48,2.92-4.96,12.05-5.95,18.92l1.77,30.72c14.4,14.81,25.83,10.57,32.12,6.21.02-.94.05-1.85.07-2.79.55-20.5,1.17-43.73-1.67-64.73-.53-3.92-.69-11.81-.9-24.36-.21-12.33-.56-32.96-1.81-37-9.04-29.45-27.02-33.66-36.81-33.59M806.8,246.32c.54-7.3,10.12-23.55,12.13-18.8,3.82,8.99-12.13,18.8-12.13,18.8"/>
  <path class="cls-2" d="M1021.94,1229.37c-20.77-6.41-39.42-2.93-58.61,10.87,20.4,4.62,23.7,20.45,23.7,20.45-22.17,3.05-23.16,12-23.16,12,18.41-8.87,39.93-3.06,39.93-3.06-24.51,12.27-17.76,32.99-17.76,32.99-11.77,4.49-17.02,14.93-17.02,14.93-19.95-4.19-25.31,9.57-25.31,9.57,8.28-3.98,20.88-.1,20.88-.1-3.26,6.19-6.65,22.92-6.65,22.92-8.27-1.35-10.69,5.98-10.69,5.98,5.51.9,7.85,6,7.85,6-4.53,15.69-13.83,23.67-19.3,27.17.24.39.43.78.71,1.18.44.62.94,1.19,2.55,1.15,4.36-.05,12.13-4.53,17.06-11.71,3.73-5.43,6.27-14.62,8.96-24.34,2.5-9.07,5.09-18.44,9.11-26.52,5.05-10.12,13.36-14,21.41-13.26,6.87.63,11.51,5.72,11.51,5.72-4.01.62-8.7,2.54-12.85,6.63,8.69,6.46,11.38,17.11,11.9,25.93,1.34-3.18,2.87-6.44,4.89-9.74,1.77,4.2,2.65,8.51,2.87,12.87,17.02,5.72,11.59,32.94,11.59,32.94-3.07-9.41-10-6.76-10-6.76,3.46,5.48,1.65,15.17,1.65,15.17-6.25,5.84-18.33,23.42-18.33,23.42-2.37-9.24-9.63-8.53-9.63-8.53,4.19,6.52.6,17.14.6,17.14-3.02,2.94-7.98,6.07-12.08,8.35,5.1-.19,10.03-.85,14.33-2.27,2.42-.81,4.62-1.88,6.53-3.24.96-.68,1.85-1.44,2.62-2.21.83-.88,1.7-1.91,2.57-3.06,3.48-4.65,7.31-10.13,11.51-15.29,4.26-5.18,9.05-10.15,14.57-14.29,5.06-3.66,10.04-6.94,17.44-8.72-1.37,7.4-5.6,12.91-10.48,17.16-4.32,3.9-8.03,8.49-11.41,13.44-3.45,4.98-6.25,10.37-10.16,16.04-.99,1.43-2.09,2.89-3.36,4.38-1.39,1.56-2.86,2.94-4.43,4.18-3.14,2.49-6.64,4.38-10.17,5.76-3.53,1.4-7.09,2.29-10.61,2.86.05.02.1.03.15.05,8.5,2.58,16.93,2.86,24.22-.54,3.69-1.65,6.91-4.08,10.13-7.32l10.23-9.92c7-6.47,12.92-13.87,22.82-17.83-3.01,9.04-9.37,15.17-15.17,21.79.51,1.08,1.79,1.86,4.46,1.82.53-.46,1.08-.88,1.61-1.36,3.8-3.41,16.52-9.52,19.12-26.58-1.62.3-3.25.51-4.9.56,2.56-3.93,5.16-7.38,6.68-10.55,1.61-3.21,1.73-5.77,2.08-8.58.13-1.44.22-3.03.07-4.71-.06-.84-.21-1.72-.3-2.58-.18-1.15-.39-2.29-.51-3.47-.6-4.65-.49-9.61.19-14.21.67-4.62,1.73-8.78,2.57-12.71.65-3.2.42-4.54-.97-7.62-3.06-5.99-9.03-14.57-10.87-23.99-2.04-8.79-3.03-17.04-4.32-25.21-1.27-8.1-2.6-16.14-4.82-23.25l-4.15-11.53c-1.4-4.04-2.69-8.07-3.94-12.11-1.66-5.38-1.91-8.57-2.52-12.51-2.33-3.53-7.2-8.83-16.57-11.72"/>
  <path class="cls-2" d="M968.77,1397.03c.59-.02,1.11-.14,1.65-.21,2.11-.36,3.88-1.15,5.9-2.45,1.4-.91,2.85-2.16,4.33-3.5.05-7.6-1.45-14.46-3.44-20.14-2.12,6.77-4.5,13.02-7.94,18.02-2.09,3.04-4.91,6.14-8.14,8.94.14-.02.27-.04.41-.06,1.7-.18,3.4-.34,5.11-.44l2.12-.16Z"/>
  <path class="cls-2" d="M825.52,1022.76c-2.3-1.99-3.82-3.31-4.9-4.84-7.38-10.51-6.37-20.49-5.64-27.77.63-6.29.82-9.46-1.88-12.57-6.97-8.07-6.94-19.66-6.91-28.13,0-1.88.01-4.23-.1-5.88-3.14-2.69-8.35-7.91-12.97-15.98-.69,9.25-1.45,18.06-2.17,22.85-.04.27-.08.67-.12.98,2.7,2.88,5.87,5.99,7.81,6.95l-4.45.25s1.02,7.15,5.33,10.44c4.3,3.29-2.04,6.13.91,9.81,2.95,3.68,7.85,3.45,10.55,2.67,0,0-3.26,3.41-6.36,3.28,0,0-1.17,6.61,2.7,9.44,3.29,2.4-.3,2.02.68,9.01,6.06,11.74,11.09,19.28,11.19,19.43l.71,1.29c.29.67,5.09,11.84,8.65,25.37,3.1.13,8.41.59,12.17,2.29,0,0-4,.4-8.67,3.04,0,0-.96,1.84-1.17,5.06.5,2.74.91,5.49,1.17,8.2.17.52.28,1.01.5,1.56,3.59,9.26,11.51,10.17,11.51,10.17,0,0-4.72,3.78-9.19,1.88,0,0-2.49,18.11,7.15,19.09,0,0-4.1,2.67-6.87.85,0,0-1.17,2.72-1.63,6.28-.02,1.44-.05,2.86-.09,4.27.09,1.02.25,2.05.56,3.06,2,6.35,5.86,9.36,1.17,12.57-1.38.95-2.03,2.44-2.17,4.12,0,.52-.02,1.06-.03,1.57.4,3.72,3.1,7.96,7.22,9.88,0,0-3.51,2.13-6.82-.29-.2-.15-.38-.21-.54-.23-.07,4.75-.24,9.33-.53,13.75.38,3.17.85,6.3,1.25,8.68,1.36,8.03-7.82,9.91-.31,20.48,0,0-4.62,1.51-6.67-3.7,0,0-.06-.27-.17-.77-2.7,4.39-6.1,7.05-9.53,8.64.35.25.66.52,1.02.75,3.89,2.37,8.7,4.15,13.98,3.3-4.26,3.28-10.42,4.43-16.25,3.65-2.86-.32-5.67-1.11-8.38-2.23,1.11,3.75,2.27,7.5,3.5,11.24.87,2.61,1.81,5.23,2.72,7.84,5.37,1.31,15.09,2.5,22.93-5.93,0,0,1.36,8.99-11.05,20.81,1.74-.26,3.45-.69,5.12-1.48,1.33-.63,2.64-1.4,4.09-2.39l2.5-1.73c.4-.38.71-.48,1.11-.97,1.59-1.54,3.26-4.45,4.57-7.62,2.69-6.43,4.46-13.98,5.94-21.55.73-3.78,1.39-7.71,1.95-11.5.39-2.84,3.15-30.65,3.35-71.61-.81-2.59-1.45-5.16-1.73-7.74-.66-6.12-2.08-10.53-3.58-15.19-2.48-7.7-5.29-16.42-4.46-32.4.8-15.37-11.9-26.39-18.72-32.31"/>
  <path class="cls-2" d="M887.69,1350.67c1.06-5.36,1.99-11.12,2.76-17.06-1.79-2.78-3.67-5.63-1.93-7.87,1.06-1.37,2.25-3.38,3.35-5.41,1.65-19.81,1.15-39.71-3.33-51.79-3.52-9.5-8.49-21-13.76-33.19-2.56-5.92-4.86-11-7.01-15.81-3.98,2.43-9.58,7.89-11.44,19.64,2.59,9.02,5.49,15.98,8.16,22.32,5.17,12.27,9.64,22.87,7.77,40.19-2.77,25.63-15.98,32.57-22.28,34.57.03.07.05.16.08.24,1.65,3.61,3.75,6.58,7.27,6.75,3.7.27,7.98-2.4,11.49-5.24-2.54,3.78-5.34,7.96-10.86,9.71-2.76.84-6.08.25-8.66-1.14-2.58-1.4-4.61-3.32-6.36-5.3-6.74-8.14-10.16-17.31-13.57-26.3-.82-2.26-1.13-4.63-1.48-6.97-.36-2.44-.8-4.43-1.23-6.53-.9-4.19-2.08-8.43-3.34-12.67-2.54-8.48-5.59-16.98-8.72-25.49-6.29-17.03-13.1-34.1-18.99-51.77-2.91-8.85-5.65-17.83-7.7-27.19-1.02-4.68-1.91-9.43-2.44-14.34-.59-4.87-.61-10.26-.78-14.25-.77-17.35-4.34-35.03-8.65-52.44-4.42-17.44-9.76-34.74-15.64-51.9-1.24-3.71-2.52-7.36-3.82-10.99-.17-.28-.34-.58-.51-.84-6.66-10.5-9.45-17.73-9.4-19.06.06-1.33-9.99-15.53-11.09-20.91-1.1-5.38-5.96-6.03-4.9-9.98,1.06-3.95.25-5.76-4.38-11.74-4.63-5.97-3.21,12.74-3.38,16.73-.17,3.99,1.12,10.04,4.32,7.96,1.53-1,3.41-1.85,5.59-.87-1.7,2.28-1.59,16.36-.8,18.62.79,2.25,1.93,6.75,4.92,9.54,2.99,2.79,2.4,6.1,3.57,9.92,3.85-1.61,7.17-1.47,7.17-1.47,0,0-4.31,7.37-2.35,13.22,1.97,5.86,4.94,9.09,8.12,17.67,3.19,8.58,1.05,16.92,3.18,29.45-3.76-5.49-8.05-19.44-8.26-24.78-.21-5.34-3.57-9.92-7.72-16.77-4.15-6.84-5.84-8.69-9.03-17.26-1.51-4.07-4.96-7.09-8.17-9.17,9.34,20.97,18.96,45.43,26.29,78.79,1.61,7.3,3.37,16.05,5.23,25.45,4.13-2.8,9.1-2.62,9.1-2.62-3.75,4.41-5.66,11.05-6.33,16.71.7,3.57,1.42,7.19,2.14,10.85,4.21,1.01,13.51-2.68,7.46,1.89-2.88,2.17-4.33,6.17-5.04,10.19.8,3.97,1.61,7.95,2.44,11.91,2.84.47,6.09,2.44,6.09,2.44-2.06,2.15-3.03,6.05-3.52,9.63,1.74,7.98,3.51,15.7,5.31,22.94,3.18,4.84,9.05,13.66,13.22,19.18,5.99,7.92,1.48,14.72,12.78,24.2,6.04,5.07-.32,7.5-.58,13.41-.25,5.9-2.49,15.49,10.13,24.17,0,0-3.08,4.56-6.99,2.39,0,0,2.91,14.89,14.77,18.07,0,0-.46,2.86-1.84,4.03,0,0,3.11,9.69,8.86,13.26,5.74,3.58,1.58,7.4,2.77,10.78,1.19,3.38,6.47,12.27,13.76,13.25,7.29.98,5.09,5.55,9.99,7.76,4.9,2.21,15.17,6.2,28.48-3.89-4.39,11.8-19.07,14.72-29.73,9.83-8.42-3.86-9.94-2.18-14.47-4.89,3.6,3.68,6.77,6.31,9.01,7.79,5.91,3.89,18.28,5.9,27.95,2.35,6.72-2.47,11.17-7.27,13.22-14.26.64-2.19,1.26-4.61,1.87-7.12-3.1-1.56-4.5-5.11-4.5-5.11,2.45.23,4.6-1.25,6.36-3.4"/>
  <path class="cls-2" d="M911,1194.13c.08-9.66-3.03-7.12-2.78-20.49.24-13.37,9.37-31.98,9.37-31.98-13.06,9.3-16.83,20.06-16.83,20.06-3.18-10.79-11.43-13.48-12.84-27.2-1.41-13.72-8.98-31.71-8.98-31.71-1.8-12.75,4.41-32.44,4.41-32.44-6.24,5.73-9.84,13.23-9.84,13.23-.69-6.03-5.2-19.88-5.2-19.88-.52-20.12,5.73-37.56,9.61-46.38-2.13,1.98-4.08,3.92-5.78,5.78-11.76,12.87-11.91,40.96-11.93,41.84.43,7.37,1.98,12.22,3.71,17.6,1.61,4.98,3.42,10.62,4.26,18.37.4,3.64,2.33,8.45,4.38,13.55,2.87,7.14,6.12,15.24,7.29,24.57,1.95,15.66,6.43,22.48,12.1,31.11,2.22,3.38,4.52,6.87,6.82,11.11,5.28,9.71,5.36,15.8,5.44,21.69.06,4.39.12,8.55,2.46,15.7.33.99.65,1.89.96,2.73,1.65-3.23,3.44-6.38,5.44-9.41-.96-4.99-2.11-12.18-2.06-17.85"/>
  <path class="cls-2" d="M939.24,1420.65c-4.21,2.27-7.69,5.9-10.16,10.2-1.2,2.11-2.05,4.36-2.38,6.27-.38,1.96.05,3.2.15,3.24.06.07.09.14.47.34.36.19,1.12.37,2.03.47.39.05,1.02.08,1.8.09.71.01,1.43.06,2.12.03.52,0,1.03-.04,1.55-.06.05-7.62,6.26-17.35,16.79-25.38-4.46,1.23-8.77,2.8-12.38,4.8"/>
  <path class="cls-2" d="M168.65,745.09l-2.22-.4c-.56-.07-1.27-.3-1.96-.67-2.78-1.4-8.87-6.1-8.87-6.1.54,3.95,2.35,7.7,5.54,10.69.78.74,1.69,1.42,2.83,2.08,1.03.54,2.07.97,3.07,1.2,2.02.54,4,.49,5.92.46,3.83-.03,7.54,0,11.23-.18,3.7-.14,7.36-.34,11,.05,0,0-7.06-2.89-10.71-3.68-3.66-.77-7.33-1.22-10.83-2.11-1.75-.46-3.43-1.04-5.01-1.34"/>
  <path class="cls-2" d="M62.88,1033.63c4.58,3.12,9.43,5.68,13.88,8.48,4.38,2.58,9.07,5.83,10.23,8.05,0,.21.08.37.23.54l.39,1.94.68,3.82c.44,2.46.69,4.88.6,6.81-.15,1.96-.44,3.09-1.32,3.81-1.01.86-2.53,1.4-5.38,1.94-5.97,1.03-11.6,3.75-16.08,7.46-4.44,3.79-7.88,8.34-10.34,13.31,8.41-7.22,17.71-12.38,27.41-12.52,2.47-.08,6.57-.25,9.97-2.7,3.72-2.4,5.36-6.92,5.78-10.25.47-3.48.1-6.5-.22-9.39l-.67-4.2-.38-2.06c-.31-1.11-.7-2.23-1.15-3.29-2.12-3.78-4.83-5.82-7.31-7.65-2.54-1.68-5.02-3.13-7.53-4.39-5.03-2.46-9.87-4.77-14.76-6.94-9.72-4.48-19.05-9.19-28.07-15.61,5.81,9.5,14.81,16.9,24.05,22.85"/>
  <path class="cls-2" d="M86.15,1091.02c-4.57,1.59-8.74,4.85-13.36,7.57-4.62,2.69-9.19,5.82-13.18,9.53-3.94,3.76-7.45,7.87-10.26,12.36,0,0,8.94-5.69,13.4-8.06,4.39-2.45,8.97-4.37,13.72-6.15,4.74-1.78,10.19-2.53,14.76-5.89,4.53-3.22,8.83-7.71,10.28-13.62,0,0-10.75,2.57-15.36,4.26"/>
  <path class="cls-2" d="M866.39,991.19c4.83-4.13,9.68-8.18,14.61-12.05,4.96-3.86,10.59-6.68,15.08-10.85,4.59-4.14,9.07-8.25,13.56-13.57l-.44-.97c-7.09.03-13.52,2.62-19.3,5.87-5.88,3.23-10.11,8.53-14.62,13.21-4.52,4.7-8.73,9.62-12.73,14.68-3.95,5.11-10.82,16.13-10.82,16.13,5.08-4.01,9.74-8.39,14.66-12.44"/>
  <path class="cls-2" d="M80.85,822.45c-1.53,2.82,1.06,8.11,3.7,11.88-.54-4.2,2.29-5.65,7-11.83,5.65-7.42,18.21-12.88,23.53-28.3,5.33-15.43,16.51-35.27,16.51-35.27,4.78,4.87,20.38,6.2,20.38,6.2-12.74-5.88-16.3-16.02-16.3-16.02,12.11-26.13,24.01-31.61,24.01-31.61,5.04-1.11,30.2-5.03,30.2-5.03-14.04-6.6-26.44-4.8-26.44-4.8,9.51-10.76,12.23-21.78,12.85-29.19-4.45,5.92-10.74,13.16-19.67,21.59-21.68,20.47-52.5,81.91-58.77,98.55-3.86,10.25-8.16,14.18-11.62,17.35-2.12,1.94-3.66,3.35-5.36,6.48"/>
  <path class="cls-2" d="M23.53,1077.39c1.37,10.71.98,24.3.57,38.68-.49,17.3-1,35.2,1.94,44.69,2.57,8.31,6.48,11.62,8.93,12.95.98-1.12,2.15-2.31,3.42-3.53-11.61-21.86-3.3-58.08-3.91-81.32-.63-24.01-4.04-37.81-4.04-37.81,8.44-2.64,19.41-2.16,19.41-2.16-10.67-7.46-24.32-7.71-24.32-7.71-3.36-10.43-5.21-27.68-6.07-37.91-.83,2.31-1.53,4.71-1.86,7.27-1.68,12.99,1.1,32.46,3.79,51.29.75,5.28,1.5,10.51,2.14,15.55"/>
  <path class="cls-2" d="M50.38,1223.86c.56,1.73,1.92,2.17,2.43,2.26l3.55.26c.06-.04.12-.07.17-.11-.93-6.11-1.41-21.15,13.09-32.97,0,0-6.87-2.96-15.47,3.33,0,0-4.21-7.2-5.78-14.07-2.69,2.77-4.1,4.97-4.72,6.09-.4,3.91.75,8.26,3.4,12.39,4.56,7.08,3.9,14.14,3.46,18.82-.13,1.35-.32,3.39-.15,3.99"/>
  <path class="cls-2" d="M255.69,528.74c-.28-7.57-3.17-17.36-7.57-19.08-4.4-1.72,2.96-13.44,3.61-23.16.06-.83.06-1.57.07-2.33-1.65-1.36-2.81-3.32-2.94-5.62l-.32-5.62c-2.94,1-6.29.93-6.29.93,2.99-1.53,5.05-5.43,5.92-7.37l-.08-1.4c-1.71-.78-3.82-2.53-3.82-2.53,1.44-1.29,2.52-3.59,3.31-6.33l-1.24-21.62c-2.82.73-6.59,4.23-1.78-5.01.56-1.09.95-2.13,1.31-3.17l-.79-13.76c-1.08-1.98-2.42-3.46-3.6-4.21-2.46-1.57.39-5.7,2.8-9.69l-2.75-47.86c-2.72-.06-4.96-1.47-4.96-1.47,2.1-.72,3.55-3.6,4.51-6.45l-.36-6.24c-4.77.38-8.8.13-11.83-.3.16,4.56.39,8.65.74,11.79,1.67,15.12,6.74,61.15,6.98,76.99.03,1.7.05,4.41.06,7.92.12,23.08.47,87.82,6.79,125.27,8.02-7.37,12.48-22.73,12.22-29.67"/>
  <path class="cls-2" d="M228.82,334.39c3.95-1.28,8.44-3.66,11.46-5.41l-2.4-41.81-6.5-3.78c1.4.03,3.95-2.01,6.05-3.95l-1.03-17.86c-4.95,4.9-8.97,10-8.54,14.78.56,6.24.59,17.34.64,30.19.03,9.28.07,19.31.32,27.84"/>
  <path class="cls-2" d="M428.02,181.82c29.05-12.78,62.89-19.06,101.29-18.62,26.28.3,49.31,3.47,69.66,8.79l174.92-10.06-4.65-16.46-519.27,29.86-.72,16.78,178.77-10.28Z"/>
  <path class="cls-2" d="M118.47,1159.88c-1.97,4.73-3.95,10.93-3.47,16.05,0,0-17.25-1.74-26.32,7.87,0,0,10.39-1.55,23.58,1.68,0,0,2.44,13.1-2.38,16.56,0,0,.33,4.06,4.07,7.33,20.94-4.66,37.89-.68,48.85,3.78,1.35-4.16,2.6-13.49-10.62-18.62-17.36-6.74-11.49-11.82-.83-11.7,8.84.1,11.98-.55,15.42-4.45-5.07-10.6-23.13-18.45-48.3-18.49"/>
  <path class="cls-2" d="M923.62,1237.39c3.44,1.64,9.25,4.52,11.56,12.4.97-2.55,2.84-8.31,1.84-12.56,0,0,1.23-7.95,7.67-13.22,0,0-9.31-.16-13.64,7.41,0,0-4.47-.67-8.43-4.27-1.14,2.13-2.18,4.31-3.12,6.54l.53,1.16c.42.91.96,1.29,3.59,2.55"/>
  <path class="cls-2" d="M207.45,628.87c6-.17,12.57,4.63,12.57,4.63-4.48-9.52-8.63-11.03-8.63-11.03,30.33-23.68,45.21-9.72,45.21-9.72-2.55-6.77-8.94-12.38-8.94-12.38,3.46-2.85,6.65-4.38,6.65-4.38,7.69,2.66,16.47,13.32,16.47,13.32-3.34-10.84-8.96-19.38-8.96-19.38,5.46-6.13,13.04-7.77,17.1-8.22-1.88-6.49-3.25-12.02-4.27-16.56-16.08,7.1-34.03,18.09-46.27,28.4-16.77,14.13-32.43,38.06-39.04,49.98-1.04,1.87-1.71,3.62-2.16,5.2,1.79.57,3.88,1.33,6.23,2.28,4.3-11.94,14.05-22.14,14.05-22.14"/>
  <path class="cls-2" d="M97.4,1314.41c-14.67.37-29.75-5.28-29.75-5.28-2.86-18.78,1.19-43.25,1.19-43.25,18.39-1.54,28.49-11.77,28.49-11.77-14.4,1.71-28.62-.56-28.62-.56-2.42-5.19-3.49-12.92-3.95-18.15-2,1.29-3.74,2.67-5.17,4.15-1.24,10.06-4.08,35.25-3.57,50.72.26,7.94.94,17.02,1.67,26.64,1.09,14.61,2.23,29.72,1.86,41.52-.3,9.73,3.97,23.24,7.73,35.15,2.9,9.17,5.63,17.82,6.28,24.63.18,1.87.33,3.82.48,5.82.58,7.62,1.54,20.3,5.13,20.45.06,0,.12,0,.18,0,3.08-.23,5.34-7.45,6.08-13.84-1.41-11.35-4.2-17.81-5.93-28.83-.05-.34-.08-.69-.13-1.02-3.99-13.17-10.21-34.64-10.77-43.65-.79-12.69,1.24-36.59,1.24-36.59,13.24,1.9,27.58-6.14,27.58-6.14"/>
  <path class="cls-2" d="M236.21,1424.78c4.47-4.65,9.33-8.69,14.49-12.24,4.25-8.15,8.5-18.45,11.86-29.52,4.66-15.34,20.74-38.19,20.74-38.19,11.94-9.26,39.1-10.76,39.1-10.76-21.13-4.46-33.27-.98-33.27-.98,6.62-9.49,11.28-24.83,11.28-24.83,7.82-6.33,23.45-8.32,23.45-8.32-9.64-3.08-23.07-.55-23.07-.55,1.89-6.23,2.11-13.1,1.73-19.09-3.86,11.93-12.89,28.63-21.69,44.89-4.25,7.85-8.27,15.27-11.4,21.61-8.43,17.05-25.03,53.85-33.23,77.98"/>
  <path class="cls-2" d="M121,1453.82c-5.35-5.19-7.59-13.08-11.38-20.63-4.6-9.19-13.14-35.21-16.75-44.35-2.44-6.19-7.92-11.08-11.25-13.64,1.23,2.76,2.23,5.55,3.18,8.36l5.51,15.54c3.65,10.31,4.69,13.42,8.58,23.25,0,.19,6.47,20.45,14.96,30.27,1.78,2.06,4.25,1.59,5.41,1.49.64-.06,1.21-.16,1.73-.29"/>
  <path class="cls-2" d="M284.38,1226.51s-2.94,6.31-2.7,11.21c0,0,7.66-10.22,13.05-11.76,0,0-4.74,9.46-3.62,14.5,0,0,3.98-4.82,11.09-4.96,7.11-.14,15.46,1.99,21.39-1.75,5.93-3.74,11.08.48,21.57-5.74,0,0-3.89,7.83-10.63,9.76-6.75,1.93-12.07,1.7-22.01,5.72-7.39,2.99-14.85,7.19-25.1,8.49,15.76,5.36,40.34,9.28,63.49-10.47,39.29-33.52,86.57-87.88,94.33-115.4,1.91-6.76,4.2-15.43,6.57-25.09-4.35,5.83-9.47,9.03-11.39,13.62-2.6,6.22,3.08,5.79.02,14.99-3.06,9.2-10.98,15.18-10.98,15.18-6.71-6.62-13.92-1.6-13.92-1.6,6.33-.06,7.41,5.98,7.41,5.98-2.3,6.9-8.94,14.27-8.94,14.27-7.13-4.64-15.31-.32-15.31-.32,4.02-.49,12.25,1.86,9.07,6.05-3.18,4.19-1.56,5.26-7.88,4.99-6.32-.27-14.47,3.37-14.47,3.37,7.03-.7,10.67,7.45,10.67,7.45-3.53-3.15-19.66.16-20.22,5.46-.56,5.31-2.18,11.9-15.4,17.33-8.18,3.36-13.14,3.53-15.76,3.18-4.86,2.43-9.8,4.21-14.81,5.8-3.31,1.03-6.66,1.87-10.01,2.76-3.39.76-6.91.83-10.37.99-6.94.19-13.98-.16-20.8-1.99-3.38-.92-6.74-2.17-9.69-4.12-2.94-1.95-5.38-4.66-6.67-7.75,4.21,5.42,10.92,6.77,17.12,7,5.12.1,10.25-.5,15.3-1.52-17.34-29.29-12.54-58.12-10.32-71.25.42-2.49.78-5.09,1.08-7.72-4.13-6.62-10.5-13.97-17.73-11.99-12.58,3.46-5.08,14.88-5.08,14.88l9.6,3.96s-8,.1-11.22,2.63c0,0,1.72,1.41,3.86,3.28,0,0-3.57.29-6.45,5.5,0,0,4.24,4.62,5.48,6.9,0,0-3.43-2.81-5.91,3.3-2.48,6.11-2.98,17.64.42,21.33,3.39,3.7-.65,4.86-3.58,10.95-2.93,6.09-.32,17.75,3.95,21.93,4.26,4.18,15.53,10.66,15.53,10.66"/>
  <path class="cls-2" d="M186.21,1009.38c-1.99-1.84-19.11-17.04-50.02-27.42-23.86-2.39-33.98,3.23-33.98,3.23-3.99,7.49-5.55,20.75-5.55,20.75,1.93,6.75,12.6,16.86,12.6,16.86-14.15-3.94-35.68-14.52-35.68-14.52,7.9,10,19.84,11.18,39.18,33.99,19.34,22.82.19,57.63.19,57.63,6.98.3,12.77,5.21,12.77,5.21-29.72,1.72-33.91,13.86-33.91,13.86,12.23-5.47,23.43-2.66,23.43-2.66,1.03,7.04-2.49,19.21-2.49,19.21-40.17,2.9-53.23,15.33-57.47,22.65,8.25-4.41,18.8-8.45,32.43-11.17,39.11-7.8,75.29-.39,91.37,16.64.61-6.9-.12-15.35-.76-22.26-2.15-5.47-4.18-11-5.81-16.72-1.77-6.22-3.37-12.57-4.26-19.09-1-6.48-1.08-13.21-1.07-19.33.08-6.13-.42-11.73-1.23-18.38,4.73,4.57,7.54,11.2,8.73,17.52,1.27,6.31,2.57,12.02,4.45,17.71.25.73.53,1.44.79,2.16,1.29-6.72,3.15-13.92,5.86-23.06,2.45-8.29,3.19-18.1,3.9-27.59.72-9.59,1.39-18.64,3.77-26.35,1.82-5.93-3.23-13.96-7.24-18.9M161.82,1029.46c2.1,7.34,5.32,22.15,5.32,22.15-4.62-6.11-8.17-13.04-11.59-19.65-1.72-3.32-4.11-6.18-5.22-9.42l-3.62-10.4.51-.67c4.53.53,8.06,3.71,10.48,6.95,2.55,3.31,3.06,7.4,4.12,11.04"/>
  <path class="cls-2" d="M169.08,1231.72c-5.58-4.39-25.44-17.91-52.53-12.01,4.33,6.25,11.69,12.76,11.69,12.76-6.45,2.72-11.47,18.83,13.26,24.88,24.72,6.06,8.33-23.29,8.33-23.29,0,0,16.41,5.66,30.08,18.87-5.42.61-14.91,2.88-18.98,14.69-33.3,10.12-22.76,43.88-23.91,60.26-1.17,16.67,6.16,27.29,10.22,37.69,2.37,6.06,5.03,11.67,7.56,17.35.11,2.92-.3,5.39-2.05,6.61-5.39-8.18-11.3-16.34-16-21.8-5.55-6.46-8.83-7.59-10.6-7.43,2.86,5.14,5.57,10.21,8.29,15.27,3.82,7.05,8.11,13.83,12.57,20.66,2.22,3.37,4.51,6.97,6.54,10.67l5.99,10.8c2.1,3.8,4.07,7.67,6.1,11.51l.08-.06s.2.49.54,1.24c1.3,2.47,2.65,4.92,3.92,7.4,1.8,2.84,3.86,5.28,5.66,5.25.18,0,.27-.01.57-.35,2.28-2.52,4.58-11.36,3.55-27.97-.66-10.62-6.58-30.11-10.49-43-2.07-6.8-3.69-12.17-4.35-15.38-2.12-10.34,3.23-30.16,4.32-34.02l3.1-10.95,9.25,6.64c9.21,6.62,19.54,31.95,21.91,40.46,1.45,5.22,4.7,11.48,8.67,13.68,1.61.9,3.23,1.04,5.2.46.53-.15.82-.33,1.18-.99,1.1-2.03,2.92-9.17-3.87-31.29-3.35-10.91-3.97-18.65-4.98-31.49-.39-4.83-.83-10.48-1.52-17.43-2.29-23.41-10.16-31.94-17.75-40.18-6.09-6.6-15.78-14.8-21.56-19.53"/>
  <path class="cls-2" d="M127.29,1409.63c-10.08-13.43-11.46-20.15-15.43-28.64-2.57-5.51-7.25-9.95-10.25-12.42,1.56,4.21,2.76,8.46,4.23,12.68,2.47,7.29,5.26,14.53,8.44,21.4.82,1.7,1.6,3.39,2.42,4.96.42.73.85,1.54,1.22,2.04l1.68,2.4c2.32,3.37,4.42,6.77,6.45,10.25,3.94,7.04,7.57,14.26,9.81,22.62,0,0,2.02,16.59,12.09,14.23-8.43-13.05-11.85-37.78-20.66-49.52"/>
  <path class="cls-2" d="M147.04,897.95l6.29,8.71s-18.51-6.01-26.5-6.02c0,0,20.26,11.23,33.79,21.97.04.02.08.04.11.06,7.01,3.96,13.19,8.78,18.94,14.16,5.67,5.4,10.91,11.49,14.42,18.66l-19.49-12.11c-6.39-3.91-12.78-7.84-19.08-11.42-1.54-.89-3.15-1.76-4.53-2.36-1.34-.64-3.54-1.45-5.18-2.25-3.44-1.67-6.9-3.22-10.2-5.15-9.09-2.69-17.87-4.78-23.6-4.88,0,0,21.47,13.28,35.05,21.43,3.25,1.25,6.44,2.65,9.43,4.41,9.33,5.44,24.27,21.2,24.27,21.2-10.29-3.41-19.61-7.8-29-11.67-9.36-3.77-18.18-8.7-27.87-10.92l-30.64-6.43c-2.35-.53-4.71-1.05-7.06-1.58-2.93.11-5.73.34-8.23.75l45.8,19.29s-35.95-3.92-50.22,5.12c14.72-1.73,31.35-1.44,49.12,2.63,32.43,7.43,52.87,19.43,63.12,26.8,3.96-5.57,8.71-8.56,12.79-11.07,3.86-2.37,6.64-4.08,8.47-7.79,1.38-2.8.7-5.1-.71-9.26-1.75-5.15-5.39-15.85,7.29-22.74,4.53-2.46,6.78-6.04,7.93-8.86-4.6-5.24-14.1-14.77-30.81-26.5-9.63-2.27-34.04-7.46-43.71-4.17M193.25,928.53c-3.74-.89-6.64-1.98-9.54-3.2-2.83-1.25-5.46-2.67-7.98-4.26-2.53-1.58-4.92-3.33-7.27-5.33-2.34-2.06-4.65-4.21-7-7.29,3.7-1.19,7.26-.94,10.63-.26,3.35.74,6.5,2.08,9.33,3.88,2.83,1.8,5.37,4.05,7.5,6.73,2.05,2.71,3.9,5.86,4.33,9.73"/>
  <path class="cls-2" d="M270.44,862.68c4.6-6.42,7.72-12.31,10.73-18,4.24-8,8.24-15.55,15.15-21.3,4.03-3.35,8.62-9.74,12.37-15.64-1.73-5.87-11.94.8-20.69,8.55-10.04,8.89-17.85,27.88-17.85,27.88-2.19-18.75,6.4-32.7,6.4-32.7-2.47-4.44-1.28-9.05-1.28-9.05,9.13,2.96,11.14-5.49,10.97-14.39-1.28-1.77-2.53-3.55-3.74-5.36-3.6-5.21-5.54-11.39-8.5-17.08-2.96-5.67-6.04-11.32-9.19-16.95-3.09-5.68-9.07-17.38-9.07-17.38,4.83,4.46,9.13,9.4,13.44,14.34,4.24,5,8.27,10.17,12.07,15.52,3.81,5.34,8.33,10.38,10.7,16.65.04.11.07.22.12.33,5,1.94,6.06-5.23,5.8-13.3-9.02-19.09-22.6-40.62-42.89-59.83-.77-.73-1.55-1.42-2.33-2.14,1.44,9.49.07,19.78.07,19.78l-16.88-20.71c8.12,17.67,1.98,41.94,1.98,41.94-6.4,1.72-28.36,1.11-28.36,1.11,6.85,8.51,29.83,11.27,40.38,13.72-13.93,8.92-34.39,1.68-43.6,10.26,4.24-.11,8.55.13,13,1,5.21,1.11,11.03,3.5,15.17,8.58.88,1.33,1.92,2.62,2.55,4.06.55,1.46,1.24,2.94,1.58,4.42l.65,4.45c.06,1.32.09,2.56.08,3.84-.13,5.09-.5,10.19-1.6,15.08-.94,4.92-2.47,9.56-3.59,14.06-1.24,4.49-1.74,8.93-.59,13.81-1.56-1.9-2.82-4.19-3.55-6.7-.74-2.51-.92-5.11-1.06-7.65-.05-5.07.36-9.88.54-14.53.07-4.66.22-9.21-.23-13.74l-.3-3.37-.54-2.67c-.22-.85-.64-1.55-.9-2.35-.32-.77-.93-1.31-1.31-2.02-2.94-3.75-8.86-5.75-15.35-6.95-20.14.54-32.05,15-32.05,15,23.03,6.65,26.61,24.13,26.61,24.13-13.52-10.91-35.15-11.51-35.15-11.51,13.81,4.26,23.59,17,23.59,17,6.58,15.64,2.97,33.36,1.93,37.7,2.17,2.06,4.29,4.17,6.17,6.54,0,0-8.71-3.66-12.84-5.6-4.09-2-8.19-3.92-12.28-5.78-1.05-.48-2.13-.89-3.22-1.27,5.33,4.08,9.88,7.94,9.88,7.94l-3.35,8.18c-30.1-15.15-57.29-21.01-72.68-23.27,70.94,27.52,104.86,56.01,118.64,70.38l2.94-.65c10.16-2.26,22.69-23.53,30.99-37.61,3.71-6.29,7.21-12.23,10.47-16.78"/>
  <path class="cls-2" d="M250.28,1027.85c.07,6,3.28,16.8,9.44,20.72,6.16,3.93-.23,12.98,4.24,17.5,4.47,4.52,8.49,4.03,13.84,3.59,5.35-.44-1.21,4.95,10.66,7.79,11.87,2.84,28.29.55,46.78-3.32-13.09,10.09-28,8.12-33.42,10.22-5.42,2.1-18.36.88-20.34.46-1.98-.42-4.63-8.53-4.63-8.53-1.79,2.92-1.63,6.92-1.63,6.92-5.28-1.23-9.09-5.39-18.03-6.77-3.23-.5-5.27-1.09-6.96-1.94.67,1,1.29,2,2.05,2.98,6.77,8.82,27.59,14.54,53.1,14.58,23.82.04,57.56-8.83,75.35-28.42,2.42-2.66,5.03-5.47,7.77-8.41,2.37-2.55,4.87-5.24,7.39-8,6.95-10.55,8.23-18.11,8.23-18.11.14-3.32-5.03-6.88-5.03-6.88,4.05-1.16,7.81,4.33,9.22,2.39,1.42-1.94.92-5.95.92-5.95,3.32.14,5.52-4.43,5.52-4.43-.49-4.02-4.95-8.87-4.95-8.87,3.32.14,8.47,4.36,8.47,4.36,2.83-3.88,3.78-10.5,4.76-17.78.98-7.29,8.12-2.98,8.41-9.63.29-6.65-2.75-13.44-9.43-13.06-2.84.16-7.05,4.01-10.94,8.37-3.45,13.25-8.91,25.19-11.8,30.26-8.52,14.79-18.67,29.37-33.95,40.12-7.7,5.21-15.76,8.74-24.05,11.65-8.3,2.83-16.81,4.92-25.56,6.03-8.75,1.07-40.48-.92-46.5-21.05,4.1,1.63,9.56,2.9,15.28,3.84-4.78-17.94,8.51-42.07,15.85-53.5,1.21-14.71-8.66-14.25-11.76-13.46,0,0,5.28,1.23,5.73,6.24,0,0-9.95,14.56-11.64,22.82,0,0-6.19-3.26-12.27-1.19,0,0,6.66-.05,8.46,4.7,0,0-6.5,11.71-4.19,25.25,0,0-9.05-11.49-10-20.53,0,0,0-15.32,2.99-23.19,0,0,6.34-.39,9.21,2.73,0,0-1.72-6.4-8.34-7.35,0,0-.83-4.03,4.72-9.13,5.55-5.09,8.48-11.3,9.01-15.94,0,0,6.13-3.07,9.37-.93,0,0-2.43-5.43-7.39-6.31,0,0,6.54-12.71,8.98-22.93,1.82-7.64,5.58-21.34,9.44-30.75-.74.77-1.48,1.52-2.2,2.25-3.9,3.92-10.88,19.91-16.48,32.76-6.78,15.54-13.79,31.6-20.57,40.91-4.99,6.85-9.19,17.05-12.38,26.51-.58,8.07-.78,17.02-.73,20.41"/>
  <path class="cls-2" d="M26.01,950.8c3.69,6.24,5.74,13.73,6.86,19.28,2.36-1.09,4.95-2.15,7.66-3.18-1.13-5.76-3.13-14.42-5.41-16.9-3.5-3.82,11.19-20.17,10.72-32.52-.47-12.34,13.55-20.74,18.95-30.16,4.36-7.61,12.13-28.75,19.85-36.22l-4.95-.7c-3.14-.46-4.77.96-9.96,11.71-3.96,8.22-8.9,18.45-19.12,24.45-12.28,7.21-13.58,17.94-14.95,29.31-.22,1.8-.43,3.55-.68,5.22-.87,5.85-3.35,11.36-5.53,16.23-2.42,5.39-4.93,10.97-3.43,13.5"/>
  <path class="cls-2" d="M675.85,592.03c-3.17,2.82-6.43,5.58-9.89,8.21-28.19,21.41-65.23,35.18-106.54,40.03,11.6.95,38.18-.37,84.79-20.53,0,0-22.38,22.93-90.7,33.19,0,0,47.42,2.4,94-27.43,0,0-8.67,15.56-59.61,33.02,32.56-7.98,59.84-22.25,80.27-41.58,10.66-14.58,10.57-21.55,7.67-24.91"/>
  <path class="cls-2" d="M408.84,637.37c-4.47-1.48-8.94-2.87-14.09-3.57l-.39.64c3.06,4.26,7.14,7.25,11.4,9.72,4.27,2.53,9.21,3.44,13.89,4.76,4.7,1.28,9.43,2.38,14.15,3.4,4.76.9,9.48,1.8,14.25,2.56,0,0-17.74-7.73-26.4-11.58-4.36-1.89-8.35-4.51-12.81-5.93"/>
  <path class="cls-2" d="M621.22,902.65c4.35-2.2,8.6-4.55,12.78-6.95,4.13-2.52,8.24-5.02,12.29-7.64,0,0-18.35,6.14-27.36,9.09-4.5,1.51-9.21,2.24-13.48,4.18-4.31,1.9-8.56,3.86-12.85,6.79l.14.73c5.12,1.11,10.16.6,14.98-.42,4.87-.98,9.14-3.62,13.5-5.77"/>
  <path class="cls-2" d="M402.18,869.12c.81,9.04,2.1,18.05,3.81,27.01,1.72,8.96,3.86,17.89,7.24,26.6,1.01-9.27,1.19-18.37,1.02-27.45-.17-9.08-.61-18.12-1.47-27.14-.83-9.02-2.04-18-3.6-26.96-1.58-8.96-3.43-17.91-6.51-26.74-1.3,9.22-1.76,18.35-1.73,27.46,0,9.11.4,18.19,1.25,27.23"/>
  <path class="cls-2" d="M572.73,867.1c.01-10.45-.4-20.91-1.17-31.36-.78-10.45-1.93-20.9-4.13-31.32-2.21,10.45-3.36,20.88-4.15,31.3-.78,10.42-1.2,20.84-1.19,31.26-.03,10.42.39,20.85,1.15,31.29.77,10.44,1.93,20.89,4.14,31.39,2.22-10.38,3.38-20.8,4.16-31.23.78-10.43,1.21-20.88,1.18-31.33"/>
  <path class="cls-2" d="M469.38,787.11c6.4.23,12.76.32,19.11.31,6.34.02,12.67-.13,19.03-.27,6.37-.11,12.71-.29,19.4-.7-5.88-2.33-12.3-3.65-18.75-4.53-6.45-.84-12.99-1.23-19.51-1.21-6.53,0-13.04.44-19.51,1.19-6.46.77-12.9,1.87-19.16,3.78,6.56.85,12.99,1.21,19.39,1.43"/>
  <path class="cls-2" d="M384.84,475.75c.23.72.5,1.44.83,2.1-.64.44-1.12,1.11-1.23,2.02-.33,2.87,1.52,5.91,4.49,6.45,2.17.4,3.97-1.01,4.09-2.89,2.86.8,5.72,1.37,8.63,1.7-.22,2.41.16,4.82.92,7-1.06.52-1.68,1.71-1.45,2.98.41,2.21,1.66,4,3.65,5.08,1.13.62,3.03.56,3.68-.8.03-.06.06-.13.09-.2,1.66.65,3.5.73,5.46-.1.31,1.86,1.08,3.56,2.06,5.08-.77-.04-1.54.09-2.33.38-2.61.99-2.68,4.78-.26,6.02.99.51,1.98,1.02,2.98,1.53,1.23.64,2.18.03,2.75-.96.79,1.31,2.57,2.06,4.03.73l.35-.32c.35-.32.56-.67.69-1.02.64.42,1.29.84,1.91,1.31.63.48,1.23,1,1.84,1.52-.77,1.09-1.07,2.69-.12,4.08,2.08,3.06,5.08,4.72,8.43,4.82.19,0,.32-.07.49-.1,2.89,2.69,5.93,5.12,9.24,7-.89-.15-1.77-.35-2.68-.4-3.08-.17-3.73,4.95-.97,6.1l1.12.47c.18.29.3.61.59.82,2.32,1.65,4.74,2.52,7.47,2.65.07,0,.13-.03.2-.04.23.1.46.19.69.29,2.51,1.04,4.6-2.89,2.81-5.11-.4-.5-.86-.86-1.31-1.26-.01-.04-.04-.07-.05-.1.59.18,1.14.45,1.73.6,2.63.66,5.31.4,7.62-.73.93.35,1.92.62,3.05.68.13,0,.27.03.4.04-.15.89.15,1.82,1.2,2.4.43.24.87.48,1.3.73,1.45.81,2.86.16,3.6-.9,3.03,3.86,8.78,4.45,13.21,3.99,1.08-.11,2.03-1.01,2.51-2.09,9.67,2.79,19.29,6.37,28.51,9,2.18.62,4.17.48,5.93-.19.05.04.06.1.11.14,1,.8,2.02,1.11,3.29,1.17,3,.14,3.54-3.9,1.35-5.03.56-.73,1.07-1.51,1.48-2.36.66.79,1.45,1.4,2.29,1.92-1.8,2.23-2.51,5.31-.35,8.17,2.13,2.82,5.33,1.79,6.84-.66.26-.11.52-.18.77-.33-.92,2.66,2.05,5.8,4.26,3.42l.47-.5c2.31-2.48-.4-6.41-2.82-5.11.18-.73.14-1.51-.08-2.2,5.08.94,10.16,1.16,15.31.81-.41,1.72.28,4,2.24,4.36,1.32.24,2.39-.09,3.61-.73,1.74-.91,1.73-2.99.87-4.39.1-.02.2-.02.3-.04,1.68-.29,3.13-1.22,4.37-2.48,2.41,2.05,5.45,3.02,8.36,1.89,3.4-1.32,6.8-2.65,10.2-3.97.28,1.65,1.92,3.05,3.73,1.93.48-.42,1.03-.61,1.67-.59,2.45-.04,3.24-2.78,2.23-4.31,1.19-.46,2.37-.92,3.55-1.38,2.75-1.07,5.11-3.06,6.61-5.67,3.46,1,7.4,0,10.07-2.87l1.57-1.69c-.97,2.48,2.07,5.4,4.08,3.08.36-.42.73-.84,1.09-1.26,2.1-2.43-.98-6.02-3.22-4.22,1.21-1.63,2.09-3.47,2.44-5.45,2.07,1.06,4.39,1.42,6.57.72,4.91-1.57,9.57-4.44,13.1-8.85,2.51-3.13,3.67-6.98,3.33-10.74,2.02.23,4.04-.18,5.69-1.52,1.23-.99,2.45-1.98,3.68-2.97,3.92-3.17,6.12-7.75,5.55-12.84.27-.29.46-.65.7-.98,1.52,1.04,4.15.48,4.26-1.93v-.33c.05-.88-.27-1.53-.77-1.98,1.6-.37,2.9-1.21,3.86-2.77.8-1.29.33-2.55-.55-3.33.14-.07.28-.1.42-.18.37.26.81.46,1.39.47.31.09.63.17.95.26.99.45,1.81.21,2.39-.33,2.41-.83,2.26-5.03-.78-5.16-.32-.02-.61.03-.88.1-.43-.11-.86-.18-1.45-.19-.3,0-.53.07-.78.14-.09-1.48-1.23-3-3.14-2.72-.63.09-1.15.34-1.69.56,1.24-3.29,3.47-6.1,5.63-8.84,3.17,1.6,7.87,2.97,9.15-1.39.81.41,1.78.4,2.67-.29,3.03.38,4.42-4.25,1.25-5.09-1.78-.47-3.28-.17-4.66,1.06-.02.02-.02.03-.04.05-.77-.9-1.88-1.56-3.14-1.93.45-.94.84-1.9,1.08-2.9-25.55-9.71-55.58-13.35-82.54-16.73-16.52-2.07-50.08-1.09-78.59.76-14.61.94-38.8,4.6-40.1,6.94-2.15-2.38-18.07,2.01-22.15,3.88-4.37,1.43-8.32,1.39-12.78,2.55-4.25,1.11-7.39,1.37-11.59,2.74-2.56.23-6.17,1.72-8.73,2.38-10.36,2.69-29.22,7.05-32.56,20.92-.06.27-.07.55-.12.82-1.86-1.05-4.77.19-3.94,2.71.34,1.04.68,2.07,1.02,3.11.53,1.62,2.11,2.13,3.41,1.83M656.01,474.71c-.22.18-.46.17-.73.17-.27,0-.52.08-.78.12-.64.1-1.16-.52-1.63-.87-.39-.29-.38-.84.05-1.1.48-.28.9-.34,1.29-.26h0s.02,0,.02,0c.07.02.15.03.22.06.84.23,2.63,1.01,1.56,1.88M648.13,445.45c1.49-.11,4.75.31,4.92,2.16.07.75-1.84,1.72-2.58,1.63.51-.61,1.82-1.38,1.24-1.48-.18-.77-.81-.71-1.21-.89-.74-.31-1.84.1-1.86-.5-1.94-.29-2.89-.75-.52-.93M639.6,448.49c.61-.33,1.21-.56,1.87-.72.06-.13,2.13-.9,2.63-1.05.1-.03.19-.02.28-.02-.32.35-.47.95,0,1.28,1.16.84,2.49,1.33,3.92,1.45.98.08,1.98.23,2.97.41-.06.37-.31.72-.76.8-.7.12-2.17.17-2.19.19-.15.11-1.58-.24-1.61-.24-.15.3-5.37.02-6.15-.2-.16-.04-.57-.29-.65-.3-.74-.09-.95-1.25-.3-1.61M633.2,438.18c.19,0,.4-.02.62-.04.27-.09.55-.16.87-.07.33.09.64.35.43.54-.18.16-.85.31-1.17.35-.51.06-.79-.19-1.04-.4-.16-.14.01-.37.3-.38M542.94,457.9c-.3.05-.55-.24-.77-.41-.18-.14-.18-.4.02-.52.23-.14.42-.16.61-.13h0s0,0,0,0c.04,0,.07.02.1.02.4.11,1.23.48.73.88-.1.08-.22.08-.34.08-.13,0-.24.04-.37.06M548.33,473.43c-.1-.15.02-.41.2-.43.12-.01.25-.03.39-.06.17-.1.35-.19.55-.09.21.1.4.37.26.6-.11.18-.54.36-.74.41-.32.07-.49-.19-.65-.42M567.83,521.94c-.38.24-.76.56-1.35.58-.45.02-.89-.15-1.29-.32-.03,0-.05,0-.09,0-.41-.02-.68-.16-.83-.33-.17-.11-.29-.25-.3-.44-.03-.69.91-.69,1.61-.8.35-.06.71-.21,1.22-.11.44.08.8.31,1.06.52.36.29.38.65-.04.9M583.53,517.96s0,0,0,0c-.07.1-.29.14-.29.28.06.11-2.81.4-2.29-.8-.02-.9,3.24-.38,2.58.52M611.17,504.27c-1.99,0-3.97.15-5.95.16-.21,0-.42,0-.63,0-.31-.15-.59-.33-.84-.57-.05,0-.1-.02-.15-.02-.06.11-.19.15-.27.23-1.6-.48-3.22-.49-4.83-.19-.55-.06-1.1-.12-1.68-.17-1.46-.13-2.8-.78-4.15-1.31-.28-.11-.5-.3-.69-.52-.14-.03-.27-.11-.42-.13-1.3-.29-1.48-2.4-.26-2.91,1.14-.48,2.25-.79,3.46-.95.12-.21.27-.42.54-.58.65-.38.96-.95,1.79-.95.89,0,1.62.29,2.54.12.19-.04.34,0,.51,0-.64.57-1.01,1.62-.24,2.29,1.93,1.69,4.2,2.82,6.74,3.27,1.74.31,3.49.77,5.23,1.26-.1.39-.37.71-.71.95M609.55,501.11c4.39-4.03-4.82-4.09-4.82-4.09-3.42-.15-.37-1.46,3.06-1.32l1.99.09c3.46.16,8.58,4.59-.23,5.32M628.64,470.33c.26-.02.54-.07.83-.12.36-.23.74-.4,1.17-.2.44.2.85.8.55,1.27-.24.39-1.15.77-1.58.87-.68.15-1.05-.41-1.38-.9-.21-.31.03-.88.42-.92M621.65,456.41c.42,0,.95,0,1.39.14.6-.06.92.84.38,1.16-.12.11-.27.18-.44.19h-.04c-.64.18-1.26.11-1.78-.41-.42-.42-.02-1.06.5-1.07M632.09,506.33c.26-.01.54-.03.83-.05.35-.12.73-.21,1.16-.09.44.12.86.47.57.73-.23.22-1.13.42-1.56.47-.68.07-1.06-.25-1.4-.54-.22-.18.02-.5.4-.51M621.08,490.35c-.02-.91,3.24-.38,2.58.52h0c-.07.1-.29.14-.28.27.06.12-2.81.41-2.29-.8M624.93,511.84c.42-.01.95-.01,1.39.13.6-.06.92.84.38,1.16-.12.1-.27.18-.44.19h-.03s0,0-.01,0c-.64.19-1.26.11-1.78-.41-.42-.41-.02-1.05.5-1.07M597.7,432.71c.23-.14.42-.16.61-.13h0s0,0,0,0c.04,0,.07.02.1.02.4.11,1.23.48.73.88-.1.08-.22.08-.34.08-.13,0-.24.04-.37.06-.3.05-.55-.24-.77-.41-.18-.14-.18-.4.02-.52M586.31,431.44c.12-.01.26-.04.39-.06.17-.11.35-.19.55-.1.21.1.4.37.26.6-.11.18-.54.36-.74.41-.32.07-.5-.19-.65-.42-.1-.15.02-.41.2-.43M578.7,454.05c.31-.27.7-.5,1.26-.63l1.07-.24c.53-.12.98-.1,1.39-.01.41-.19.91-.32,1.56-.28,3.32.23,6.65.46,9.97.68.9.06,1.54.38,1.95.79.1,0,.21.02.32.01.42-.05.88-.04,1.4.13.25.08.51.18.77.29,1.13.3,2.22.66,3.26,1.14,1.2.55,1.4,1.4,1.04,2.12.24.62.22,1.27-.32,1.93-.87,1.07-2.75,1.34-4.78,1.32-1.09.73-2.45,1.09-4.01.9-.64-.07-1.12-.28-1.5-.55,1.49-.08,2.74-.4,3.99-1.03,1.21-.61.95-1.92.11-2.65-3.36-2.93-13.5-4.49-18.23-2.32-.07-.59.13-1.2.75-1.61M566.53,435.23c.26,0,.54-.03.83-.05.36-.12.73-.21,1.16-.09.44.12.86.47.57.73-.23.22-1.13.42-1.56.46-.68.07-1.06-.25-1.4-.54-.22-.18.02-.5.4-.51M561.37,460.29c.85-.56,1.69-1.19,2.53-1.91,1.04-.17,2.15-.19,3.14-.4,2.19-.46,4.08-1.3,5.69-2.63.6.07,1.2.12,1.87,0,.27-.05.5,0,.74.02-.93.84-1.48,2.37-.35,3.36,2.82,2.48,6.15,4.12,9.87,4.79,2.54.46,5.1,1.12,7.66,1.84-.26.94-.98,1.79-2.19,1.89-1.87.15-3.72.06-5.56-.15-.08.02-.15.04-.23.06-.41.25-.9.33-1.46.19-.93-.09-1.78-.53-2.46-1.19-.07,0-.14-.04-.21-.03-.47.75-1.35,1.22-2.54.9-2.51-.68-4.81-.86-7.39-1.09-2.14-.19-4.09-1.15-6.08-1.92-.41-.16-.73-.44-1.01-.76-.21-.05-.4-.15-.61-.19-1.23-.27-1.68-1.63-1.41-2.77M560.43,476.4c.26-.03.54-.08.83-.12.36-.23.74-.4,1.16-.2.44.21.85.8.55,1.27-.24.39-1.15.77-1.58.87-.68.15-1.05-.41-1.38-.9-.21-.31.03-.88.42-.92M541.65,432.62c.95-.07,1.61.13,2.53.32,3.02.64,1.01,2.74-1.72,2.72.47-.67,1.35-.48.95-1.42-.4-.94-5.64-.55-5.64-.55.36-.68,1.93-.92,3.87-1.07M529.74,435.34c.73-.27,2.44-.79,2.6-.88.42-.21,2.28-.44,2.89-.56.12-.02.23-.02.35-.02-.39.3-.56.81.01,1.1,1.44.73,3.07,1.18,4.83,1.3,1.21.08,2.43.23,3.66.4-.07.31-.36.61-.92.67-.86.1-2.66.11-2.69.12-.18.09-1.53-.02-1.87-.22-.03,0-.07,0-.1,0-.18.25-.56.43-1.14.36-1.2-.16-6.78-.75-6.93-.85-.1,0-.19-.04-.29-.04-.9-.09-1.19-1.08-.4-1.37M541.04,538.36c-.24.39-1.15.77-1.58.87-.68.15-1.05-.41-1.38-.9-.21-.31.03-.88.42-.92.26-.02.54-.07.83-.12.36-.23.74-.4,1.17-.2.44.21.85.8.55,1.27M508.85,444.37c.26-.03.54-.08.83-.12.36-.23.74-.4,1.16-.2.44.21.85.8.55,1.27-.24.39-1.15.77-1.58.87-.68.15-1.05-.41-1.38-.9-.21-.31.03-.88.42-.92M516.46,474.69c.23-.13.42-.16.61-.12h0s.07.02.1.03c.4.11,1.23.47.73.88-.1.08-.22.08-.34.08-.13,0-.24.04-.37.06-.3.05-.55-.24-.77-.41-.18-.14-.18-.4.02-.52M522.74,510.35c.62-.02,13.35,1.32,17.06-1.6-.37-.44-2.64-2.26-2.96-2.79-.15-.24-.65-2.63-.71-2.86-4.27-1.52-3.82-2.25-8.6-3.45,1.52-.44,2.88-.4,6.37-.36,3.02.03,5.96.52,8.87,1.3.35-.2,4.68.83,5.32,2.65.55,1.56,3.35,2.02.03,5.12-.72.67-2.83,1.86-2.93,1.92-2.59,1.83-6.31,2.73-9.36,3.35-.51.1-1,0-1.45-.18-.07.02-.13.04-.2.06-.94.24-1.69-.03-2.23-.52-.96-.02-1.92-.07-2.88-.2-.67.27-1.44.24-2.21-.37h.07s0,0,0,0c-.23-.05-.47-.06-.7-.12-3.1-.73-6.3-1.86-3.48-1.96M494.33,437.08c.23-.13.42-.16.61-.12h0s.07.02.1.03c.4.11,1.23.47.73.88-.1.08-.22.08-.34.08-.13,0-.24.04-.37.06-.3.04-.55-.24-.77-.41-.18-.14-.18-.4.02-.52M505.07,473.42c.12-.01.26-.04.39-.06.17-.1.35-.19.55-.1.21.1.4.37.26.6-.11.19-.54.36-.74.41-.32.07-.49-.19-.65-.43-.1-.15.02-.41.2-.43M482.94,435.81c.12-.01.26-.03.39-.06.17-.1.35-.19.55-.09.21.1.4.37.26.59-.11.19-.54.36-.74.41-.32.07-.49-.19-.65-.42-.1-.15.02-.41.2-.43M493.52,483.23c.26-.01.54-.03.83-.05.35-.12.73-.21,1.16-.09.44.12.86.47.57.73-.23.22-1.13.42-1.57.47-.68.07-1.06-.25-1.4-.54-.22-.18.02-.5.4-.51M498.52,510.24c1.9-.8,3.76-1.32,5.78-1.58.21-.36.46-.71.9-.96,1.09-.64,1.61-1.59,3-1.59,1.48,0,2.71.48,4.24.19.31-.06.58,0,.85.02-1.06.96-1.69,2.71-.4,3.83,3.22,2.83,7.01,4.7,11.26,5.46,2.9.52,5.83,1.28,8.74,2.11-.29,1.08-1.12,2.05-2.5,2.15-2.14.17-4.24.06-6.34-.17-.09.02-.17.04-.26.07-.47.29-1.03.38-1.67.22-1.06-.1-2.04-.61-2.81-1.37-.08,0-.16-.04-.24-.04-.54.85-1.53,1.39-2.9,1.02-2.87-.78-5.49-.98-8.43-1.24-2.44-.22-4.67-1.31-6.94-2.19-.47-.18-.84-.5-1.15-.87-.23-.06-.45-.18-.69-.21-2.17-.48-2.47-4.01-.43-4.87M465.56,501.42c-.01.1-.09.18-.19.23-.09.09-.25.16-.48.15-.02,0-.03,0-.05,0-.23.08-.48.15-.73.12-.33-.04-.53-.24-.73-.39-.22-.17-.19-.36.02-.51.16-.11.37-.22.62-.24.29-.02.48.07.68.12.39.1.91.14.86.53M471.49,509.56c-.24.39-1.15.77-1.58.87-.68.15-1.05-.41-1.38-.9-.21-.31.03-.88.42-.92.26-.02.54-.07.83-.12.36-.23.74-.4,1.16-.2.44.21.85.8.55,1.27M471.83,439.35c2.56.63,2.5,2.03-.12,2.8l-1.03-.04c3.48-1.92.45-1.98-1.61-2.07.55-.64,2.77-.69,2.77-.69M462.66,441.74c.5-.25,1-.42,1.55-.53.05-.1.11-.2.23-.28.29-.19,1.54-.4,1.95-.5.08-.02.16,0,.23,0-.27.28-.41.77-.05,1.05.93.72,1.99,1.16,3.16,1.3.8.09,1.61.25,2.42.43-.06.3-1.8.72-2.38.69-.02,0-.05.02-.07.02-.12.08-.27.12-.45.09-.29,0-3.14-.18-3.95-.2-.67-.02-1.29-.28-1.93-.48-.13-.04-.24-.12-.33-.22-.06-.01-.13-.04-.19-.05-.6-.1-.74-1.05-.2-1.32M479.99,473.72c1.59.36,2.61.87,2.94,1.71,4.05,1.8-2.2,4.96-7.18,3.6,4.95-.79,4.77-2.82,2.33-3.4-5.23-1.22-7.34-.79-10.55-.45,3.05-2.55,7.9-2.48,12.45-1.46M456.22,477.39c1.14-.48,3.74-1.37,4-1.53.65-.38,3.42-.66,4.33-.83.19-.04.34,0,.51,0-.64.57-1.01,1.62-.24,2.29,1.92,1.69,4.2,2.82,6.74,3.27,1.74.31,3.49.77,5.23,1.26-.18.65-.67,1.23-1.5,1.29-1.28.1-2.54.04-3.8-.1-.05,0-8-.64-9.76-.8-1.46-.13-2.79-.78-4.15-1.31-.28-.11-.5-.3-.69-.52-.14-.03-1.89-2.53-.67-3.04M450.86,529.77c-.02.1-.09.18-.19.23-.09.09-.25.16-.48.15-.02,0-.03,0-.05,0-.23.08-.49.15-.74.12-.33-.04-.52-.24-.73-.39-.22-.17-.19-.36.02-.51.16-.11.37-.22.62-.24.29-.03.48.07.68.12.38.1.91.14.86.53M425.9,459.1c.16-.11.37-.22.62-.24.29-.03.48.07.68.12.38.1.91.14.86.53-.01.11-.08.18-.19.23-.09.09-.25.16-.48.15-.02,0-.03,0-.05,0-.23.07-.49.15-.74.12-.33-.04-.52-.24-.73-.39-.22-.16-.19-.36.02-.51M437.32,508.88c.23.7-1.36.4-1.32.34,0-.08-.11-.11-.15-.17h0c-.32-.54,1.53-.67,1.47-.17M418.75,456.46c.23.7-1.36.4-1.32.34,0-.08-.11-.11-.15-.17-.32-.54,1.53-.68,1.47-.17M423.64,492.03c-.02-.9,3.24-.38,2.58.53t0,0c-.07.1-.29.14-.28.28.06.11-2.81.4-2.3-.8M405.27,465.41c3.27,1.26,1.82,4.11-1.18,3.66,2.7-1.57-.1-3.23-4.92-2.64.57-1.56,3.55-2,6.1-1.02M391.8,468.69c.75-.4,1.49-.67,2.31-.85.07-.15.16-.31.33-.43.42-.3,2.29-.65,2.91-.82.13-.03.23-.02.35-.02-.4.43-.6,1.16-.03,1.58,1.41,1.04,3.03,1.67,4.79,1.84,1.2.11,2.43.32,3.65.55-.08.45-2.68,1.15-3.55,1.13-.03,0-.07.02-.1.04-.18.14-.41.19-.67.15-.44,0-4.72-.15-5.93-.15-1.01,0-1.96-.37-2.91-.65-.2-.06-.36-.17-.5-.31-.1-.02-.19-.06-.29-.06-.9-.12-1.15-1.55-.35-1.98"/>
  <path class="cls-2" d="M288.51,864.23c-1.53,2.5-3.16,5.07-5.08,7.75-.21.29-.44.65-.65.96,1.07,5.7,2.75,15.39,4.06,25.74.77-1.02,1.53-1.92,2.29-2.68,5.47-5.5,11.83-12.61,16.23-17.65-1.4-2.26-4.1-4.74-9.38-4.21l7.61-11.67-15.06,1.75Z"/>
  <path class="cls-2" d="M400.18,1066.12c-.88.94-1.65,1.78-2.49,2.7.27,4.62,1.36,11.3,2.02,13.11,1.54,4.9,5.86,8.15,8.82,12.25,1.88,2.61,3.73,5.26,5.59,7.9,1.79-5.35,3.42-10.77,4.89-16.26-1.39-4.3-2.45-8.83-5.61-12.12-1.48-1.69-8.27-6.5-12.36-8.51-.28.3-.58.62-.86.92"/>
  <path class="cls-2" d="M725.15,843.9c-.3-13.7-.92-27.38-2.34-41.02-1.37-13.63-3.23-27.25-6.45-40.7-2.22,27.5-2.08,54.67-1.85,81.87.27,13.59.53,27.17,1.04,40.76.45,13.6,1.02,27.2,2.11,40.98,3.32-13.42,5.08-27.11,6.2-40.79,1.19-13.69,1.38-27.41,1.29-41.11"/>
  <path class="cls-2" d="M257.69,353.63c4.03-21.72,1.24-75.32,1.24-75.32,2.08,3.2,13.38,9.01,13.38,9.01-5.17-3.78-13.77-20.58-13.77-20.58-2.57-12.55-1.48-37.82,1.86-43.44,3.35-5.63,11.27-3.96,21.47-3.52,10.2.44,15.81,4.23,22.66-.36,6.86-4.59,18.08-7.22,18.08-7.22-.14,3.1,3.74,5.94,3.74,5.94,1-2.62,1.56-5.26,1.56-5.26,5.76.25,13.38-1.2,13.38-1.2-.11,2.66,1.45,7.61,1.45,7.61.34-7.98,10.15-8.89,19.1-10.28,7.08-1.1,13.78.8,22.04.36,4.02-3.42,8.16-6.68,12.47-9.72l-147.02,8.46,8.37,145.53Z"/>
  <path class="cls-2" d="M773.3,456.39c.64,3.39,1.48,7.48,2.52,11.76,4.79-3.7,8.09-7.83,10-12.48l-12.51.72Z"/>
  <path class="cls-2" d="M636.97,185.81c4.95,2.4,9.71,4.94,14.23,7.65l16.39.7c.29,3.57,1.99,5.41,1.99,5.41.65-4.86,5.28-9.1,5.28-9.1-.56,2.64.86,11.14.86,11.14.6-3.53,4.22-5.15,4.22-5.15,0,0,6.26-1.06,23.09.1,16.83,1.17,31.71,6.24,40.8,1.31,9.09-4.94,14.76-2.47,15.88,2.46,1.12,4.93-3.54,10.06-3.54,10.06,8.06-1.43,15.5,1.11,15.5,1.11-4.45.25-11.73,4.38-11.73,4.38,6.11,2.49,4.42,10.85.57,17.79-3.85,6.94,2.96,13.89,8.9,20.37,5.94,6.47,3,23.22,3,23.22-5.74-.69-8.07,1.87-8.07,1.87,7.05,1.19,12.18,5.85,12.18,5.85-.54,2.2-2.99,7.42-2.99,7.42,5.43,18.44-3.23,23.4-1.62,27.46s8.17,6.12,4.88,10.42c-3.29,4.3-7.2,12.57-1.24,18.6,5.96,6.03,4.51,29.51,4.51,29.51-6.15-1.6-13.43,2.53-13.43,2.53,8.44-.08,11.72,6.28,11.72,6.28-9.7-1.75-13.99,5.17-13.99,5.17,4.43.19,15.48,1.55,18.14,11.88,2.66,10.33-4.81,18.89-2.51,27.43,1.69,6.28,7.05,5.26,11.48,1.36l-14.68-255.3-139.8,8.04Z"/>
  <path class="cls-2" d="M296.74,1049.97c3.69.3,7.11.44,9.99.44.48-5.93,1.38-11.68,2.77-17.69,1.36-5.91-.28-11.97-2.53-20.36-.45-1.66-.92-3.44-1.39-5.29-7.66,13.62-15.57,32.92-8.83,42.91"/>
  <path class="cls-2" d="M645.06,692.16c17.12-8.52,18.23-30.53,16.71-45.48-15.28,6.84-49.81,21.65-71.8,26.03-24.91,4.96-44.5,13.61-50.04,20.15,2.35,2.59,4.66,4.73,6.64,6.4,1.54-.1,3.08-.24,4.62-.35,7.11-.49,14.22-.88,21.34-1.26.64-4.37,2.53-8.3,5.62-11.5,6.78-7,19.07-10.58,36.52-10.63,22.31-.08,28.61,10.66,30.39,16.64"/>
  <path class="cls-2" d="M594.42,688.73c-1.36,2.6-2.43,5.54-2.14,8,3.89-.16,7.79-.36,11.68-.49,7.95-.34,15.91-.42,23.88-.52.32-2.19.44-5.11-.55-7.61-3.05-1.16-7.11-1.95-12.6-1.94-9.21.03-15.68,1.09-20.27,2.56"/>
  <path class="cls-2" d="M588.66,871.7c6.39,2.54,15.06,3.98,15.06,3.98-13.98,3.32-19.42,7.17-6.36,9.04,13.06,1.87,28.34,1.29,41.87-2.86,27.69-8.48,7.83-10.58,1.98-9.47-5.85,1.11-11.36-3.07-11.36-3.07,10.48-5.39,28.51-8.04,28.51-8.04,0,0-5.85-3.94-22.89-3.5-17.04.44-46.8,13.92-46.8,13.92"/>
  <path class="cls-2" d="M379.02,573.77c32.66,32.91,84.39,52.58,147.02,52.5,51.15-.06,97.41-13.82,130.26-38.76,20.56-15.61,35.25-35.03,43.77-57.34.09-5.45-.96-9.16-1.94-11.37-31.05,46.58-87.44,77.75-155.52,81.81,39.25,14.45,94.3-7.38,94.3-7.38-37.9,29.24-124.68,32.85-174.7,19.15-32-8.77-53.39-22.88-68.44-35.14-22.27-18.14-27.84-37.68-27.66-44.91-1.78-2.14-3.51-4.32-5.17-6.54-7.39,18.85,12.56,42.08,18.09,47.99"/>
  <path class="cls-2" d="M569.64,789.53c2.59-5.67,3.77-11.55,4.59-17.4.76-5.85.95-11.7.73-17.53-.23-5.83-.9-11.63-2.03-17.39-1.21-5.76-2.71-11.5-5.42-17.12-1.82,5.93-2.58,11.76-3.11,17.56-.47,5.8-.55,11.57-.34,17.32.21,5.75.76,11.48,1.6,17.21.9,5.74,2.01,11.45,3.98,17.34"/>
  <path class="cls-2" d="M661.95,821.11c4.76.9,9.48,1.79,14.25,2.56,0,0-17.73-7.73-26.4-11.58-4.36-1.89-8.34-4.51-12.81-5.92-4.47-1.48-8.94-2.87-14.09-3.57l-.39.64c3.06,4.25,7.14,7.25,11.4,9.72,4.27,2.53,9.21,3.44,13.89,4.75,4.7,1.28,9.43,2.39,14.15,3.4"/>
  <path class="cls-2" d="M527.7,590.45c106.01-.11,185.89-68.02,185.79-157.96-.07-64.54-23.22-172.01-175.1-178.54-3.62-.15-7.34-.26-11.11-.29-60.31-.61-107.1,15.14-139.07,46.81-39.4,39.04-47.62,93.56-47.58,132.43.1,89.93,80.51,157.69,187.07,157.55M351.17,415.96s3.15,50.77,23.02,68.94c0,0-38.26-132.89,41.88-184.07,0,0-22.23,5.71-30.44,10.68,0,0,23.49-34.97,109.23-45.94,0,0-7.11,10.35,6.86,10.96,0,0,128.76-19.79,174.04,58.1,0,0-36.53-33.55-59.51-25.87-22.98,7.67-11.65,54.13,11.78,82.45,15,18.13,77.89,63.3,54.39-40.96,9.87,18.41,22.67,61.59,15.78,97.94-6.89,36.35-16.56,75.24-75.86,106.66-59.31,31.43-145.18,14.42-186.31-5.34,0,0,19.18,18.81,55.46,27.03,0,0-43.44,4.08-99.53-40.25-53.48-42.27-40.8-120.33-40.8-120.33"/>
  <path class="cls-2" d="M503.92,716.53c-12.97,2.11-33.27-.98-47.93-.73,0,0,1.57,4.95,12.07,8.51,10.5,3.56,16.27,14.02,16.27,14.02-4.76-2.87-18.35-7.01-18.35-7.01,1.58,4.51,7.14,9.63,22.56,22.73,15.43,13.1,35.72,16.19,35.72,16.19,0,0-.19-5.78-12.28-13.85-12.09-8.07-18.92-14.58-18.92-14.58,0,0,25.13,4.19,37.11,14.92,11.97,10.73,3.44,23.24,3.44,23.24,4.43.19,17.75.32,17.75.32-2.96-24.11,1.51-66.11,1.51-66.11l-8.42-.36c-7.54-.32-27.56.59-40.53,2.7"/>
  <path class="cls-2" d="M459.41,930.58c-4.31,1.9-8.56,3.86-12.85,6.78l.14.73c5.12,1.11,10.16.6,14.98-.42,4.87-.98,9.14-3.62,13.5-5.77,4.35-2.2,8.6-4.55,12.79-6.95,4.13-2.52,8.24-5.02,12.29-7.64,0,0-18.35,6.14-27.36,9.09-4.5,1.52-9.21,2.25-13.48,4.18"/>
  <path class="cls-2" d="M514.02,904.83s-19.33.89-28.8,1.27c-4.74.23-9.48-.36-14.11.34-4.66.65-9.29,1.38-14.22,3.01l-.06.74c4.62,2.47,9.6,3.35,14.52,3.69,4.95.39,9.78-.98,14.56-1.86,4.78-.93,9.51-2.03,14.2-3.19,4.66-1.3,9.3-2.58,13.91-3.99"/>
  <path class="cls-2" d="M552.96,877.63c-.28-14.22.53-22.63,1.46-44.35s.58-34.17-3.3-37c-3.87-2.83-20.89.44-31.51-.47-10.62-.9-34.08-2.79-51.87-2.23-17.79.57-46.68,1.1-65.03,4.31,2.95,3.68,10.91,4.47,21.53,5.37,10.62.9,10.8,7.12,4.86,10.87-5.93,3.74-8.01,10.76-8.01,10.76,0,0,7.46,2.1,12.55-2.57,5.08-4.66,15.34-5.56,15.34-5.56-2.95,6.54-6.82,13.92-6.82,13.92,17.63-7.24,18.66-20.96,18.66-20.96,5.73,1.13,5.9,7.36,19.8,14.62,13.9,7.26,24.63,5.5,24.63,5.5-16.83-11.38-13.39-19.23,10.27-11.55,23.65,7.68,31.23,17.33,22.83,16.52-8.41-.81-16.9.61-12.6,3.9,4.3,3.29,10.11,12.87,12.4,21.41,2.3,8.54,14.79,17.51,14.79,17.51"/>
  <path class="cls-2" d="M525.33,859.13c-9.78-10.19-23.02-19.75-37.11-25.13-28.84-11.01-13.49,3.86-7.84,6.77,5.65,2.91,7.56,10.1,7.56,10.1-12.34-2.31-29.25-11.92-29.25-11.92,0,0,2.36,7.21,16.99,18.05,14.64,10.84,48.48,18.96,48.48,18.96-3.72-6.38-10.09-13.31-10.09-13.31,13.94,6.37,21.03,6.68,11.26-3.51"/>
  <path class="cls-2" d="M693.83,927.3c-5.01-2.47-9.53-3.38-14.12-4.16-4.54-.87-9.19.32-13.88.3-9.32-.08-28.63.12-28.63.12,4.45,1.95,9.04,3.41,13.67,4.91,4.64,1.39,9.37,2.54,14.16,3.45,4.77.94,9.63,2.57,14.58,1.86,4.91-.65,9.9-2.05,14.34-5.43l-.12-1.06Z"/>
  <path class="cls-2" d="M455.76,1469.64c-1.26-1.4-2.48-2.8-3.71-4.21-6.37-7.3-12.92-14.74-25.88-22.54-21.9-7.98-35.81-5.52-35.81-5.52.27,4.01.34,12.89.34,12.89-26.77-9.2-43.06-9.96-52.17-8.91,11.12,1.76,22.13,4.74,32.94,9.04,41.56,16.56,79.06,45.65,93.88,70.18.49-1.98.95-4.04,1.36-6.12.06-.82,2.02-30.41-10.93-44.81"/>
  <path class="cls-2" d="M854.54,1032.21c1.54-3.78,3.38-7.46,5.57-10.8-4.68-9.86-16.36-16.03-16.36-16.03,1.07-8.62,6.63-23.35,6.63-23.35-7.93,6.22-11.11,14.99-11.11,14.99-1.69-5.14-.81-8.74-1.21-20.14-.4-11.4-9.1-10.55-10.63-21.49-.87-6.24-3.5-11.33-5.62-14.62.33,2.64.36,5.53.35,8.73-.02,6.27-.04,14.08,3.03,17.63,7.31,8.46,6.41,17.42,5.68,24.62-.64,6.34-1.14,11.34,2.57,16.67.51.56,1.42,1.31,2.54,2.28,4.61,4,12.96,11.27,18.56,21.53"/>
  <path class="cls-2" d="M985.34,894.49c-4.42-2.04-7.29-4.91-8.54-8.51-1.83-5.33.53-9.94,2.1-12.98.21-.42.48-.94.71-1.42-4.17-4.49-4.2-9.07-3.8-11.49.19-1.17.58-2.23,1.04-3.24-7.99-.57-13.7.97-19.94,2.74-5.16,1.46-11.01,3.12-18.5,3.63-7.89.53-14.86,1.99-21.55,4-14.57,6.32-18.7,16.73-9.72,25.41,7.2,6.95,7.83,20.54,7.83,20.54,5.2-2.22,10.57,1.79,10.57,1.79-13.32,9.87-12.52,17.89-12.52,17.89,13-10.55,21.42-12.85,21.42-12.85,0,0,25.21,2.42,32.55,10.06-39.32.31-52.65,13.28-52.65,13.28,4.07-1.6,12.68-.57,12.68-.57,1.16,4.05,6.6,22.24,6.6,22.24-16.58,5.8-21.38,12.58-22.7,16.73,5.45-2.67,10.84-4.85,15.92-6.29,20.84-5.89,56.2-13.03,82.95-3.95-.32-5.32-.45-11.59.24-16.23.99-6.67-.58-13.47-1.96-15.95-2.23-4.03-1.54-8.86-.57-15.55.45-3.15,1.37-9.57.78-11.74-4.91-5.32-12.54-12.75-22.92-17.54M937.6,887.49c-7.13.58-11.12.41-17.85,2.73,0,0,4.66-8.33,8.22-10.26,3.52-2.11,8.13-1.58,12.39-1.62,4.33.09,8.81.74,13.37,2.15,2.28.69,4.59,1.66,6.87,2.72,2.34,1.25,4.5,2.19,6.96,4.6,0,0-22.84-.91-29.97-.32"/>
  <path class="cls-2" d="M845.73,409.95c-15.95-1.24-30.87-13.51-40.99-24.14l1.89,32.91c9.93,8.03,14.77,19.41,13.53,32.41-.32,3.32-1.05,6.67-2.1,10,2.6,7.35,4.97,25.14-19,46.51,6.31,6.6,13.11,14.99,18.4,27.58,12.33,8.33,24.03,17.37,32.08,24.16,1.37,1.16,2.73,2.4,4.07,3.64,1.27-23-.98-40.43-2.73-53.65-1.11-8.44-2.07-15.72-1.8-22.08.23-5.41.68-11.45,1.14-17.7.96-13.01,1.95-26.47,1.27-37.17-.6-9.36-3.67-17.73-5.76-22.47M836.27,506.41c3.39,9.03-4.14,18.92-5.69,12.64-1.55-6.29-10.73-12.9-10.73-12.9,4.35-3.14,7.29-12.33,12.03-17.25.34,6.68,1.01,8.48,4.4,17.51"/>
  <path class="cls-2" d="M864.89,1453.03l-.05.02c-.17-.73-4.81-20.36-30.49-28.66-21.45-6.93-48.05,1.97-69.94,10.83,11.27.36,26.97,2.59,38.82,11.11,0,0-39.58-1.37-53.69,17.02,0,0,12.14-3.48,30.08-2.37,0,0,10.17,3.21,14.05,10.32,26.42-1.96,56.27-.62,75.38,12.39-.16-6.16-1.34-13.12-2.51-19.94-.61-3.56-1.18-7.16-1.65-10.7"/>
  <path class="cls-2" d="M837.27,1242.23c-2.13,1.02-4.43,1.79-6.79,2.34,3.61,5.39,6.88,12.02,10,26.45,2.31,10.67,4.98,16.27,8.34,23.37,1.82,3.82,3.86,8.14,6.11,13.77.61-2.36,1.11-5.05,1.45-8.19,1.43-13.21-1.77-20.79-6.61-32.27-3-7.12-6.55-15.56-9.61-27-.94.53-1.9,1.06-2.9,1.53"/>
  <path class="cls-2" d="M336.58,1281.45c-3.82.84-7.74,2.59-10.15,5.83,0,0,7.4-.43,10.81-.55,3.36-.08,6.84-.61,10.4-.49,3.55.09,7.13.5,10.69,1.12,3.58.54,10.9,1.72,10.9,1.72-6.63-3.28-13.67-5.81-21.14-7.08-3.71-.6-7.6-1.48-11.51-.55"/>
  <path class="cls-2" d="M226.91,1469.32c3.95-3.82,9.03-7.8,15.5-11.5,2.94-9.13,9.17-20.99,14.47-30.25-11.93,8.44-21.65,20.17-29.16,35.26-.31,2.29-.57,4.46-.81,6.49"/>
  <path class="cls-2" d="M369.55,1114c.2,4.73.13,9.4-.33,13.91-.48,4.57-2.42,8.65-2.79,12.91-.48,4.34-1.11,8.61-1.3,14.22l.88.6c5.17-2.43,8.58-7.03,10.68-11.98,2.22-5.03,1.49-10.62,1.05-15.7-.42-5.14-1.48-10.12-2.94-14.89-1.55-4.76-3.34-9.34-5.43-13.76l-1.03.28c.46,4.88,1.13,9.65,1.22,14.41"/>
  <path class="cls-2" d="M399.51,388.37c.51-.39.61-1.13.22-1.64-.39-.52-1.13-.61-1.64-.22-.52.4-.61,1.13-.22,1.64.4.51,1.13.61,1.64.22"/>
  <path class="cls-2" d="M495.28,395.02c-.51.39-.61,1.13-.22,1.64.39.51,1.13.61,1.64.22.52-.4.61-1.13.22-1.64-.4-.51-1.13-.61-1.64-.22"/>
  <path class="cls-2" d="M453.16,379.12c.65-.5.77-1.43.27-2.08-.5-.65-1.43-.77-2.08-.27-.65.5-.77,1.43-.27,2.08.5.65,1.43.77,2.08.27"/>
  <path class="cls-2" d="M439.43,346.46c.51-.39.61-1.13.22-1.64-.39-.51-1.13-.61-1.64-.22-.52.4-.61,1.13-.22,1.64.4.51,1.13.61,1.64.22"/>
  <path class="cls-2" d="M572.01,463.79c.43-.05,1.33-.25,1.57-.46.29-.26-.13-.61-.57-.73-.43-.12-.81-.03-1.16.09-.29.02-.57.04-.83.05-.39.02-.62.33-.4.51.34.28.72.61,1.4.54"/>
  <path class="cls-2" d="M478.32,340.58c.27-6.43,4.61-19.34,14.58-18.92-6.97-.3-12.75-8.09-12.3-18.73-.38,8.87-4.33,18.02-14.08,17.6,7.98.35,12.43,5.2,11.8,20.05"/>
  <path class="cls-2" d="M437.14,394.26c-1.88-.08-3.45-2.19-3.32-5.06-.1,2.4-1.17,4.87-3.8,4.75,2.15.09,3.36,1.4,3.19,5.41.07-1.74,1.24-5.22,3.94-5.11"/>
  <path class="cls-2" d="M383.12,458.98c2.47-.54,4.02-2.03,5.02-4.29.05-.1.03-.19.06-.29.18-.12.42-.16.64-.24.41-.1,3.89-5.78.77-5.52-.25.02-.47.09-.71.12,0-.02-.81.11-1.21.21-.07.02-3.99.79-5.97.79-1.54,0-2.59,1.07-2.77,2.55-.24,1.94.15,3.67,1.21,5.31.65,1.01,1.71,1.62,2.95,1.35"/>
  <path class="cls-2" d="M497.11,340.17c-.82.63-.98,1.82-.35,2.64.63.82,1.82.98,2.64.35.82-.63.98-1.82.35-2.64-.63-.82-1.82-.98-2.64-.35"/>
  <path class="cls-2" d="M408,342.47c6.82-9.13,9.97-18.3,7.05-20.49-2.93-2.19-10.83,3.45-17.64,12.58-6.82,9.13-9.97,18.3-7.05,20.49,2.93,2.19,10.82-3.45,17.64-12.58"/>
  <rect class="cls-1" x="-51.47" y="47.21" width="1146.95" height="1430.62"/>
</svg>