<?xml version="1.0" encoding="UTF-8"?>
<svg id="Capa_1" data-name="Capa 1" xmlns="http://www.w3.org/2000/svg" viewBox="0 0 289.77 289.77">
  <defs>
    <style>
      .cls-1 {
        fill: #a7a7a7;
      }
    </style>
  </defs>
  <path id="Icon_ionic-ios-close-circle" data-name="Icon ionic-ios-close-circle" class="cls-1" d="m144.88,0C64.87,0,0,64.87,0,144.88s64.87,144.88,144.88,144.88,144.88-64.87,144.88-144.88C289.77,64.88,224.92,0,144.92,0c-.01,0-.02,0-.03,0Zm36.71,197.34l-36.71-36.71-36.71,36.71c-4.23,4.46-11.28,4.65-15.74.42-4.46-4.23-4.65-11.28-.42-15.74.14-.14.28-.28.42-.42l36.71-36.71-36.71-36.71c-4.23-4.46-4.04-11.51.42-15.74,4.3-4.07,11.03-4.07,15.32,0l36.71,36.71,36.71-36.71c4.23-4.46,11.28-4.65,15.74-.42,4.46,4.23,4.65,11.28.42,15.74-.14.14-.28.28-.42.42l-36.7,36.7,36.71,36.71c4.32,4.36,4.32,11.38,0,15.74-4.29,4.35-11.29,4.4-15.64.12-.04-.04-.07-.07-.11-.11Z"/>
</svg>