<?xml version="1.0" encoding="UTF-8"?>
<svg id="Capa_1" xmlns="http://www.w3.org/2000/svg" version="1.1" viewBox="0 0 800.4 267.7">
  <defs>
    <style>
      .st0 {
        fill: #ff6a14;
      }
    </style>
  </defs>
  <path class="st0" d="M47.5,210.6l54.5.2c2.9,0,5.6.5,8.1,1.6s4.6,2.6,6.5,4.5,3.3,4.1,4.4,6.6,1.6,5.2,1.6,8.2c0,6-2,10.9-5.9,14.8-4,3.8-8.9,5.8-14.7,5.8H24.5c-.7,0-1.4-.1-2-.4-.5,0-1-.1-1.5-.4-4.3-1.2-7.9-3.5-10.7-7.1s-4.2-7.8-4.2-12.7V25.1c0-2.9.5-5.6,1.6-8.1s2.5-4.6,4.4-6.4,4-3.2,6.6-4.3c2.5-1.1,5.2-1.6,8-1.6s5.6.5,8.1,1.6c2.5,1.1,4.7,2.5,6.6,4.3s3.4,3.9,4.5,6.4,1.6,5.2,1.6,8.1v185.5h0Z"/>
  <path class="st0" d="M421.3,131.6l56.2-55.4c2.2-2.2,4.7-3.9,7.3-4.9,2.7-1,5.4-1.6,8.1-1.6s5.4.5,7.9,1.5,4.8,2.5,6.8,4.4c2.1,2.1,3.6,4.5,4.5,7.1.9,2.6,1.3,5.3,1.2,8s-.8,5.3-1.9,8c-1.1,2.6-2.6,5-4.6,7.1l-55.8,55.3,55.4,54.6c2,2.1,3.5,4.5,4.5,7.1s1.6,5.3,1.7,8c0,2.8-.4,5.5-1.5,8.2-1,2.7-2.6,5-4.7,7-4.4,4.2-9.5,6.3-15.1,6.3s-10.7-2.1-14.9-6.3l-55.6-55-55.8,55.2c-2,2.1-4.2,3.7-6.8,4.7-2.5,1-5.1,1.6-7.7,1.6-5.5,0-10.5-2.1-14.9-6.3-2.1-2-3.7-4.2-4.7-6.8-1-2.5-1.5-5.2-1.5-7.8s.6-5.3,1.7-8c1-2.6,2.5-5,4.5-7.1l55.4-55-56.6-55.9c-2-2-3.5-4.2-4.5-6.9s-1.5-5.3-1.5-8,.6-5.3,1.7-8c1-2.6,2.6-5,4.7-7.1,4.4-4.2,9.5-6.3,15.1-6.3s5.2.5,7.8,1.6c2.6,1,5,2.6,7,4.7l56.4,55.9h.2Z"/>
  <path class="st0" d="M624.4,131.6l56.2-55.4c2.2-2.2,4.7-3.9,7.3-4.9,2.7-1,5.4-1.6,8.1-1.6s5.4.5,7.9,1.5,4.8,2.5,6.8,4.4c2.1,2.1,3.6,4.5,4.5,7.1s1.3,5.3,1.2,8-.8,5.3-1.9,8c-1.1,2.6-2.6,5-4.6,7.1l-55.8,55.3,55.4,54.6c2,2.1,3.5,4.5,4.5,7.1s1.6,5.3,1.7,8c0,2.8-.4,5.5-1.5,8.2-1,2.7-2.6,5-4.7,7-4.4,4.2-9.5,6.3-15.1,6.3s-10.7-2.1-14.9-6.3l-55.6-55-55.8,55.2c-2,2.1-4.2,3.7-6.8,4.7-2.5,1-5.1,1.6-7.7,1.6-5.5,0-10.5-2.1-14.9-6.3-2.1-2-3.7-4.2-4.7-6.8-1-2.5-1.5-5.2-1.5-7.8s.6-5.3,1.7-8c1-2.6,2.5-5,4.5-7.1l55.4-55-56.6-55.9c-2-2-3.5-4.2-4.5-6.9s-1.5-5.3-1.5-8,.6-5.3,1.7-8c1-2.6,2.6-5,4.7-7.1,4.4-4.2,9.5-6.3,15.1-6.3s5.2.5,7.8,1.6c2.6,1,5,2.6,7,4.7l56.4,55.9h.2Z"/>
  <path class="st0" d="M793.7,230.9c0,2.9-.6,5.6-1.7,8.2-1.1,2.6-2.6,4.9-4.5,6.8-1.9,1.9-4.1,3.4-6.7,4.5s-5.3,1.7-8.3,1.7-5.6-.6-8.2-1.7-4.9-2.6-6.9-4.5-3.5-4.2-4.6-6.8-1.7-5.4-1.7-8.2V90.8c0-2.9.6-5.6,1.8-8.1s2.7-4.8,4.7-6.8,4.2-3.5,6.9-4.6c2.6-1.1,5.4-1.7,8.4-1.7s5.8.6,8.2,1.7c2.5,1.1,4.7,2.6,6.6,4.6s3.4,4.2,4.4,6.8c1,2.5,1.6,5.3,1.6,8.1v140.1h0Z"/>
  <circle class="st0" cx="772.4" cy="25.6" r="21.2"/>
  <path class="st0" d="M312.8,173.9c3.8-3.6,5.6-8.4,5.6-14.3-.1-12.5-2.7-24.3-7.6-35.3s-11.5-20.5-19.9-28.7c-8.3-8.1-18-14.5-29.1-19.3s-22.8-7.1-35.3-7.1-24.5,2.4-35.6,7.2c-11.1,4.8-20.8,11.3-29.1,19.5s-14.9,17.9-19.7,29c-4.9,11.1-7.3,23-7.3,35.7s2.4,24.5,7.3,35.6c4.8,11,11.4,20.7,19.7,29s18,14.9,29.1,19.7c11,4.8,22.8,7.2,35.3,7.2h12.8c17.8,0,35.1-5.1,50-14.9,9.6-6.3,12.2-19.1,6-28.7-6.3-9.6-19.1-12.2-28.7-6-8.1,5.3-17.5,8.1-27.3,8.1s-.4,0-.6,0h-11.9c-5.2,0-10.2-.7-14.9-2.2s-9.1-3.6-13-6.3-7.4-6.1-10.4-10-5.3-8.2-7-12.9h116.7c6.1,0,11.1-1.8,14.8-5.5h0v.2ZM179.9,144.9c1.4-5.1,3.6-9.7,6.5-13.9s6.5-7.7,10.6-10.7,8.8-5.3,14-6.9,10.7-2.4,16.5-2.4,11.4.8,16.6,2.3c5.2,1.5,10,3.8,14.2,6.7,4.2,2.9,7.8,6.5,10.8,10.7s5.2,9,6.6,14.2h-95.8Z"/>
</svg>